<svg xmlns="http://www.w3.org/2000/svg" xmlns:xlink="http://www.w3.org/1999/xlink" width="490" height="490" viewBox="0 0 490 490"><defs><style>.cls-1{isolation:isolate;}.cls-2{fill:#f4b731;}.cls-3{mix-blend-mode:soft-light;}.cls-4{fill:url(#linear-gradient);}.cls-5{fill:none;stroke:#000;stroke-opacity:0.1;stroke-width:8px;}.cls-6{fill:#fff;}</style><linearGradient id="linear-gradient" x1="244.39" y1="1.12" x2="244.39" y2="491.12" gradientTransform="translate(489.39 491.12) rotate(180)" gradientUnits="userSpaceOnUse"><stop offset="0.14" stop-color="#f4a331"/><stop offset="0.32" stop-color="#f7b73f"/><stop offset="0.69" stop-color="#ffea62"/><stop offset="0.7" stop-color="#ffeb63"/></linearGradient></defs><title>DAI-token-circle</title><g class="cls-1"><g id="Layer_2" data-name="Layer 2"><g id="Layer_1-2" data-name="Layer 1"><circle id="aion-b" cx="245" cy="245" r="245"/><circle id="aion-b-2" data-name="aion-b" class="cls-2" cx="245" cy="245" r="245"/><g class="cls-3"><circle id="aion-b-3" data-name="aion-b" class="cls-4" cx="245" cy="245" r="245"/></g><circle class="cls-5" cx="245" cy="245" r="240.84"/><path class="cls-6" d="M404,202.27H372.85C355.69,154.69,309.58,122,248.75,122h-100v80.27H114V231h34.75v30.18H114V290h34.75v79.3h100c60.14,0,105.89-32.38,123.5-79.3H404V261.21H379.21a131.79,131.79,0,0,0,.92-15.6v-.71a131.71,131.71,0,0,0-.72-13.88H404ZM176.71,147.75h72c44.66,0,77.8,22,93.08,54.52H176.71Zm72,195.72h-72V290H341.62C326.25,322,293.21,343.47,248.75,343.47ZM351.2,246.32a108.17,108.17,0,0,1-1,14.89H176.71V231H350.23a108.8,108.8,0,0,1,1,14.58Z"/></g></g></g></svg>