<?xml version="1.0" encoding="utf-8"?>
<!-- Generator: Adobe Illustrator 18.1.1, SVG Export Plug-In . SVG Version: 6.00 Build 0)  -->
<svg version="1.1" id="Layer_1" xmlns="http://www.w3.org/2000/svg" xmlns:xlink="http://www.w3.org/1999/xlink" x="0px" y="0px"
	 viewBox="0 0 254.2 195.1" enable-background="new 0 0 254.2 195.1" xml:space="preserve">
<g>
	<g>
		<g>
			<linearGradient id="SVGID_1_" gradientUnits="userSpaceOnUse" x1="127.084" y1="196.641" x2="127.084" y2="120.218">
				<stop  offset="0" style="stop-color:#FFD33F"/>
				<stop  offset="1" style="stop-color:#F37366"/>
			</linearGradient>
			<path fill="url(#SVGID_1_)" d="M253.9,76.8c-1.2,17.8-13.2,35.4-36.6,48.9c-49.4,28.6-129.6,28.5-179.4-0.2
				c-14.6-8.4-24.7-18.1-30.9-28.5c-0.7-1.1-1.3-2.3-1.9-3.4c-1.2-2.5-2.1-4.8-2.9-7c-0.5-1.7-0.8-2.6-1-3.6
				c-0.4-1.9-0.6-2.8-0.7-3.6c-0.2-1.4-0.2-2.1-0.3-2.7C0,99.1,0,124.2,0,124.2c1.5,17.9,13.8,35.6,37.4,49.3
				c18.7,10.7,41.7,17.4,65.7,20.2c40.1,4.6,83.2-2.1,114.1-20c23.7-13.7,35.9-31.6,36.8-49.7c0.1-1.6,0.1-2.7,0-3.9
				c0,0,0.1-22.6,0.1-43.4H253.9z"/>
			<path fill="#FFD33F" d="M0.2,75.9c0.1,0.9,0.2,1.9,0.3,2.8C0.7,80.3,0.9,81.1,1,82c0.4,2,0.7,3,1,3.9c0.9,3,1.9,5.3,3,7.5
				c0.7,1.4,1.3,2.6,2,3.7c6.1,10.4,16.3,20.1,30.5,28.3c50.2,28.8,130.4,28.9,179.8,0.3c23.7-13.7,35.9-31.6,36.8-49.6
				c0.3-6.3-1.1-12.1-3.2-17.7c-1-2.7-1.8-5.4-3.3-8c-5.9-10.3-15.9-19.9-29.8-28.2C195.5,9.5,168.9,2.4,141.4,0.6
				c-8.9-0.6-17.9-0.7-26.8-0.3c-28.4,1.5-56,8.5-77.6,21.1c-1.7,1-3.4,2-5,3.1c-14.8,9.6-24.1,21-28.6,32.8c-1.9,4.9-3.1,10-3.2,15
				C0.1,73.5,0.1,74.7,0.2,75.9z"/>
		</g>
	</g>
	<g>
		<path fill="#F49D1D" d="M111.5,36.1c0.7,0.4,1.3,0.8,1.9,1.2c0.3,0.2,0.6,0.4,0.8,0.6c0.7,0.5,1.5,1.1,2.1,1.7c-0.1,0-0.1,0-0.2,0
			c1.6,1.3,2.9,2.7,4.1,4.1c0,0,0.1,0,0.1,0c4.8,5.8,6.9,12.7,5.9,20.1c-0.5,4.2-1.9,8.5-4.2,12.8c7.1-1.2,14.3-1.9,21.3-2.1
			c12.4-0.3,24.1,1.2,34.1,4.6l0,0c0,0,0,0.1,0,0.1c0.9,0.3,1.7,0.6,2.6,0.9c1.6,0.6,3.2,1.3,4.7,2c0,0,0-0.1,0-0.1
			c1,0.5,2,1,2.9,1.5c0.4,0.2,0.7,0.4,1.1,0.6c0.7,0.4,1.4,0.8,2.2,1.3c7,4.4,18.8,3.3,26.3-2.5l5.3-4.2l5.3-4.2l-4.8-3l-10.7,8.3
			c-4.6,3.5-11.7,4.2-15.9,1.6c-0.8-0.5-1.7-1-2.4-1.4c-0.4-0.2-0.8-0.5-1.2-0.7c-2.1-1.2-4.4-2.2-6.8-3.2c-0.4-0.1-0.7-0.3-1.1-0.4
			c-0.1-0.1-0.3-0.1-0.4-0.2c-2-0.8-4.2-1.4-6.3-2.1l0,0c-10-2.8-21.5-4.1-33.7-3.7c-4,0.1-8.1,0.4-12.2,0.8c0.8-2.5,1.4-5,1.6-7.4
			c0.9-7.3-0.8-14.2-4.9-20l0,0c-0.9-1.3-1.9-2.6-3.1-3.8c-0.2-0.2-0.5-0.5-0.7-0.7c-1.4-1.4-2.9-2.6-4.6-3.8
			c-0.3-0.2-0.6-0.4-0.9-0.6c-0.6-0.4-1.3-0.9-2.1-1.3c-3.7-2.2-2.3-6.3,3.1-9.1l12.7-6.6l-4.2-2.5l-6.4,3.3l-6.4,3.2
			C107.7,25.7,105.3,32.3,111.5,36.1z"/>
		<path fill="#F49D1D" d="M173.9,97.5c-0.5-0.3-1-0.6-1.5-0.9c-1.1-0.6-2.1-1.2-3.2-1.7c-3,3.5-6.6,6.7-11.1,9.7
			c-25.2,16.5-65.8,16.8-89.5,1.3C45.4,91,50.7,68.5,79.4,55c5.1-2.5,10.5-4.6,16-6.2c-0.7-0.6-1.5-1.2-2.3-1.8l0,0
			c-0.4-0.3-0.8-0.6-1.3-0.9c-0.4-0.2-0.8-0.5-1.1-0.7c-5.7,1.8-11.2,3.9-16.4,6.4C41.2,66.9,35,92.4,61.6,109.6
			c27.3,17.8,73.8,17.8,102.2-1.3c4.5-3.1,8.3-6.5,11.4-10C174.8,98.1,174.4,97.8,173.9,97.5z"/>
		<path fill="#F49D1D" d="M155.7,46.3c3.4,1.1,6.6,2.5,9.4,4.3c2.8,1.7,5.2,3.7,7.1,5.9c2.4,0.2,4.7,0.6,7,0.9l1.4,0.2l0,0
			c0.8,0.1,1.6,0.3,2.4,0.4c-2.4-4.4-6.2-8.4-11.5-11.6c-5.2-3.2-11.5-5.4-18.4-6.7c0.4,0.7,0.7,1.5,1,2.3
			C154.9,43.4,155.4,44.8,155.7,46.3z"/>
		<path fill="#F49D1D" d="M222.3,85.9c-10.4,8.2-26.9,9.7-36.7,3.4c-0.7-0.5-1.4-0.9-2-1.2c-0.3-0.2-0.7-0.4-1-0.6
			c-2.1-1.2-4.4-2.2-6.8-3.1c0,0-0.1,0-0.1-0.1c-9.6-3.7-21-5.4-33.3-5.1c-11.4,0.2-23.1,2-34,5.2c5.9-6.3,9.5-13.3,10.2-20
			c1-7.3-1.4-14-6.6-19.5c-1.3-1.3-2.8-2.6-4.4-3.8c-0.2-0.2-0.5-0.4-0.8-0.5c-0.5-0.4-1.1-0.7-1.7-1.1c-8.8-5.3-5.4-14.5,7.3-20.7
			l-4.6-2.7c-16.8,8-21.3,19.9-9.8,27c0.1,0.1,0.2,0.1,0.3,0.2c0.4,0.3,0.8,0.5,1.2,0.8c1.3,0.9,2.4,1.8,3.5,2.7
			c5.5,5.1,7.9,11.4,7,18.3c-1.2,10.2-9.6,20.5-23.4,28.1l-0.1,0l-0.2,0.1l5.7,3.7c0.1,0,0.1-0.1,0.2-0.1l0,0
			c13.8-7.6,31.6-12.1,48.9-12.2c10.8-0.2,20.9,1.4,29.4,4.7c0.7,0.3,1.4,0.6,2.1,0.9c1.7,0.8,3.4,1.6,5,2.5
			c0.4,0.2,0.9,0.5,1.4,0.8c0.1,0.1,0.2,0.1,0.4,0.2c13,8.3,34.9,6.5,48.3-4.4L222.3,85.9z"/>
		<path fill="#F49D1D" d="M124.2,29.5c0.8,0.5,1.6,1,2.2,1.4c0.3,0.2,0.7,0.5,1,0.7c2.1,1.5,4,3.2,5.7,4.9c0.5,0.6,1,1.1,1.5,1.7
			c1.3,1.6,2.5,3.3,3.4,5c3.3,5.8,4.5,12.3,3.8,19.2c-0.1,0.9-0.2,1.8-0.4,2.8c1.5-0.1,3-0.2,4.5-0.2c11.4-0.4,22.3,0.5,32,2.7l0,0
			c3,0.7,5.8,1.4,8.6,2.4c0.9,0.3,1.8,0.6,2.7,0.9c0.2,0.1,0.3,0.1,0.5,0.2c3,1.1,5.8,2.4,8.5,3.8c0.4,0.2,0.9,0.5,1.3,0.7
			c0.8,0.5,1.7,1,2.6,1.5c1.4,0.9,3.9,0.7,5.6-0.6l16.1-12.4l5.3-4.2l-4.6-2.8l-19.2,14.6c-0.2-0.1-0.4-0.2-0.6-0.3
			c-0.5-0.3-1-0.5-1.4-0.8c-2.8-1.5-5.9-2.9-9-4c-0.2-0.1-0.4-0.2-0.6-0.2c-2.6-1-5.3-1.8-8.1-2.5c-3.1-0.8-6.2-1.5-9.5-2l0,0
			c-8.3-1.4-17.2-2-26.5-1.7c0.4-5.7-0.5-11.1-2.6-16.1c-0.8-2-1.8-3.8-3-5.6c-1.1-1.7-2.4-3.3-3.9-4.9c-1.8-1.9-3.8-3.7-6.1-5.3
			c-0.3-0.2-0.7-0.5-1-0.7c-0.2-0.1-0.3-0.2-0.5-0.3l22-12.1l-4.1-2.4l-6.2,3.4l-18.9,10.1C123.4,27.3,122.9,28.7,124.2,29.5z"/>
		<path fill="#F49D1D" d="M102.2,63.9c0.1-1.8-0.1-3.6-0.5-5.3c-4.3-0.1-9.1,0.9-13,2.8c-6.9,3.5-8.2,9-2.9,12.4
			c3,1.9,7.3,2.7,11.8,2.4c1.3-1.8,2.3-3.7,3.1-5.5c-2.7,0.9-6,0.7-7.9-0.5c-2.3-1.4-1.7-3.9,1.2-5.4
			C96.5,63.4,99.9,63.1,102.2,63.9z"/>
		<path fill="#F49D1D" d="M131.8,94.8c-2-1.3-2.1-3.3-0.5-4.9c-3.2,0.3-6.4,0.8-9.5,1.5c-0.7,2.7,0.4,5.4,3.5,7.4
			c5.6,3.6,15.3,3.3,21.6-0.7c3.5-2.3,5.2-5.2,5.1-8c-2.9-0.4-6-0.6-9.1-0.7c1.2,1.5,0.6,3.6-1.6,5
			C138.5,96.2,134.3,96.4,131.8,94.8z"/>
	</g>
</g>
</svg>
