<svg xmlns="http://www.w3.org/2000/svg" xmlns:xlink="http://www.w3.org/1999/xlink" width="492.88" height="492.88" viewBox="0 0 492.88 492.88"><defs><style>.cls-1{isolation:isolate;}.cls-2{fill:#2c7df7;}.cls-3{mix-blend-mode:soft-light;}.cls-4{fill:url(#linear-gradient);}.cls-5{fill:none;stroke:#000;stroke-opacity:0.1;stroke-width:8px;}.cls-6{fill:#0b4075;opacity:0.3;}.cls-7{fill:#fff;}</style><linearGradient id="linear-gradient" x1="246.44" x2="246.44" y2="492.88" gradientTransform="translate(492.88 492.88) rotate(180)" gradientUnits="userSpaceOnUse"><stop offset="0.14" stop-color="#0177f8"/><stop offset="0.26" stop-color="#018bf9"/><stop offset="0.5" stop-color="#00befc"/><stop offset="0.7" stop-color="#0ef"/></linearGradient></defs><title>Tezos</title><g class="cls-1"><g id="Layer_2" data-name="Layer 2"><g id="Layer_1-2" data-name="Layer 1"><circle id="aion-b" cx="246.44" cy="246.44" r="246.44"/><circle id="aion-b-2" data-name="aion-b" class="cls-2" cx="246.44" cy="246.44" r="246.44"/><g class="cls-3"><circle id="aion-b-3" data-name="aion-b" class="cls-4" cx="246.44" cy="246.44" r="246.44"/></g><circle class="cls-5" cx="246.44" cy="246.44" r="242.26"/><path class="cls-6" d="M348.42,292.69q-2.35-12.52-10.84-26a57.8,57.8,0,0,0-24.14-21.46c-10.36-5.32-19.69-8-27.94-8A49.86,49.86,0,0,0,271,240.69l76.52-76.85-12.34-13.14-124.81.3-.07-53.31-12-6.23H166.18v9l11,11.06v40.21H128.91v17.66h48.29v94.93q0,20.77,11.74,32.89t42.45,12.09a40.7,40.7,0,0,0,22.76-7c6.86-4.6,12.28-11.31,16.2-20.07a42.7,42.7,0,0,0,.84-4.84,9.33,9.33,0,0,0-2.41-6.41,9.54,9.54,0,0,0-3.05-1.71,17,17,0,0,0-9.84-1l4.73,3.34c-.09.17-.18.33-.26.51a56.84,56.84,0,0,1-13.12,13.48,26.45,26.45,0,0,1-15.83,5.56q-10.75,0-15.89-7.62c-3.43-5.08-5.18-11.55-5.18-19.41V169.34h94.4l-68.27,91.42v7.62l15.17-7.62c8.31-4.66,15.17-7,20.71-7a44.17,44.17,0,0,1,23.42,6.77c7.22,4.53,12.7,11.43,16.38,20.8s5.72,20.38,5.72,33.44A94.2,94.2,0,0,1,312.66,347c-3.43,9.43-8.79,16.63-16,21.46a42.93,42.93,0,0,1-24.32,7.26A68.84,68.84,0,0,1,253,373c-6.44-1.75-11.14-4.66-14.15-8.83a17.73,17.73,0,0,0,9-6.59c2.53-3.39,3.79-7.68,3.79-13A21.79,21.79,0,0,0,249,333.5a18.88,18.88,0,0,0-7-7.07,21.25,21.25,0,0,0-11-2.6,21.55,21.55,0,0,0-11,2.6,18.88,18.88,0,0,0-7,7.07,21.49,21.49,0,0,0-2.59,11.06q0,18,14.81,33.62c9.93,10.4,25.65,15.6,47.26,15.6a93.09,93.09,0,0,0,41-9.25,60.7,60.7,0,0,0,28.3-28.42A92.85,92.85,0,0,0,351,314.88,109.43,109.43,0,0,0,348.42,292.69Z"/><path class="cls-7" d="M267.12,392.4c-21.61,0-37.33-5.18-47.26-15.53S205,355.37,205,343.39a21.32,21.32,0,0,1,2.59-11,18.84,18.84,0,0,1,7-7,21.62,21.62,0,0,1,11-2.59,21.32,21.32,0,0,1,11,2.59,18.84,18.84,0,0,1,7,7,21.62,21.62,0,0,1,2.59,11c0,5.3-1.26,9.57-3.79,12.94a17.72,17.72,0,0,1-9,6.56c3,4.15,7.71,7,14.15,8.79a69.11,69.11,0,0,0,19.33,2.77,43.06,43.06,0,0,0,24.32-7.22c7.22-4.82,12.58-12,16-21.37a93.43,93.43,0,0,0,5.18-32.09q0-19.51-5.72-33.29c-3.67-9.33-9.15-16.2-16.38-20.71A44.31,44.31,0,0,0,267.06,253c-5.54,0-12.4,2.29-20.71,6.92l-15.17,7.59v-7.59l68.27-91H205v94.46c0,7.83,1.75,14.27,5.18,19.33s8.73,7.59,15.89,7.59A26.52,26.52,0,0,0,242,284.75a56.71,56.71,0,0,0,13.12-13.43,4.83,4.83,0,0,1,1.75-2.23,3.42,3.42,0,0,1,2.23-.84,7.55,7.55,0,0,1,4.46,1.93,9.27,9.27,0,0,1,2.41,6.38,42.36,42.36,0,0,1-.84,4.82c-3.91,8.73-9.33,15.41-16.2,20a40.82,40.82,0,0,1-22.76,6.92q-30.71,0-42.45-12T171.93,263.5V169H123.65V151.39h48.29v-40l-11-11v-9H193l12,6.2v53.76l124.81-.3,12.4,12.4L265.74,240a50,50,0,0,1,14.51-3.43c8.25,0,17.58,2.65,27.94,7.95s18.48,12.28,24.14,21.37,9.27,17.58,10.84,25.89a108.52,108.52,0,0,1,2.59,22.1,92.12,92.12,0,0,1-9.33,41.06,60.57,60.57,0,0,1-28.3,28.3A93.42,93.42,0,0,1,267.12,392.4Z"/></g></g></g></svg>