<?xml version="1.0" encoding="utf-8"?>
<!-- Generator: Adobe Illustrator 18.1.1, SVG Export Plug-In . SVG Version: 6.00 Build 0)  -->
<svg version="1.1" id="Layer_1" xmlns="http://www.w3.org/2000/svg" xmlns:xlink="http://www.w3.org/1999/xlink" x="0px" y="0px"
	 viewBox="0 0 644.3 571.9" enable-background="new 0 0 644.3 571.9" xml:space="preserve">
<g>
	<g>
		
			<linearGradient id="SVGID_1_" gradientUnits="userSpaceOnUse" x1="-51.5009" y1="398.7156" x2="615.0071" y2="398.7156" gradientTransform="matrix(1 0 0 1 -25.5488 0)">
			<stop  offset="0.2919" style="stop-color:#EAE9F5"/>
			<stop  offset="0.3893" style="stop-color:#E2E2F1"/>
			<stop  offset="0.5285" style="stop-color:#CFCEE8"/>
			<stop  offset="0.627" style="stop-color:#BFBDDF"/>
		</linearGradient>
		<path fill="url(#SVGID_1_)" d="M0,225.5v159.1c0,7.8,3.9,15.5,11.5,20l270.5,156.6c24.7,14.3,55.2,14.3,79.9,0l269.6-156.1
			c7.8-4.5,13.1-12.6,12.7-20.5V225.5H0z"/>
	</g>
	<path fill="#F1F0F8" d="M282.4,400.4L11.8,243.8c-15.3-8.9-15.3-31.1,0-39.9l272-157.5c22.5-13,50.2-13,72.7,0l275.4,159.4
		c14.8,8.5,14.8,29.9,0,38.5L362.3,400.4C337.6,414.7,307.1,414.7,282.4,400.4z"/>
</g>
<g>
	<path opacity="0.43" fill="#30439B" d="M449.3,141l-33.1-19.3c-3.3-1.9-7.3-1.9-10.6,0l-42.4,24.5l37.3,22.2h16l32.9-20.3
		C452.1,146.5,452,142.5,449.3,141z"/>
	<linearGradient id="SVGID_2_" gradientUnits="userSpaceOnUse" x1="352.6424" y1="146.0412" x2="442.4375" y2="146.0412">
		<stop  offset="0.2919" style="stop-color:#EAE9F5"/>
		<stop  offset="0.3893" style="stop-color:#E2E2F1"/>
		<stop  offset="0.5285" style="stop-color:#CFCEE8"/>
		<stop  offset="0.627" style="stop-color:#BFBDDF"/>
	</linearGradient>
	<path fill="url(#SVGID_2_)" d="M440.1,123.5v20.7c0,1-0.5,2-1.5,2.6l-35.2,20.4c-3.2,1.9-7.2,1.9-10.4,0l-35.1-20.3
		c-1-0.6-1.5-1.6-1.4-2.7c-0.2,0-0.2-20.7-0.2-20.7H440.1z"/>
	<path fill="#FFFFFF" d="M403.3,146.3l35.2-20.4c2-1.2,2-4,0-5.2l-35.4-20.5c-2.9-1.7-6.5-1.7-9.5,0l-35.9,20.8
		c-1.9,1.1-1.9,3.9,0,5l35.1,20.3C396.1,148.1,400.1,148.1,403.3,146.3z"/>
</g>
<g>
	
		<linearGradient id="SVGID_3_" gradientUnits="userSpaceOnUse" x1="5525.1099" y1="229.7903" x2="5629.7036" y2="229.7903" gradientTransform="matrix(-1 0 0 1 5698.9858 0)">
		<stop  offset="0.2919" style="stop-color:#EAE9F5"/>
		<stop  offset="0.3893" style="stop-color:#E2E2F1"/>
		<stop  offset="0.5285" style="stop-color:#CFCEE8"/>
		<stop  offset="0.627" style="stop-color:#BFBDDF"/>
	</linearGradient>
	<path fill="url(#SVGID_3_)" d="M161.8,202.6v25c0,1.2-0.6,2.4-1.8,3.1l-42.5,24.6c-3.9,2.2-8.7,2.2-12.5,0l-42.3-24.5
		c-1.2-0.7-1.8-2-1.7-3.2c-0.3,0-0.3-25-0.3-25H161.8z"/>
	<path fill="#FFFFFF" d="M117.5,230.1l42.5-24.6c2.4-1.4,2.4-4.9,0-6.3l-42.7-24.7c-3.5-2-7.9-2-11.4,0l-43.2,25
		c-2.3,1.3-2.3,4.7,0,6l42.3,24.5C108.8,232.3,113.6,232.3,117.5,230.1z"/>
	<g>
		<linearGradient id="SVGID_4_" gradientUnits="userSpaceOnUse" x1="119.7097" y1="148.516" x2="193.8248" y2="148.516">
			<stop  offset="0" style="stop-color:#F37025"/>
			<stop  offset="1" style="stop-color:#EF4039"/>
		</linearGradient>
		<path fill="url(#SVGID_4_)" d="M167.1,169.3l-45.9-26.5c-1-0.6-1.5-1.4-1.5-2.3c0-1.1,0.8-2.1,2.1-2.9l16.4-9.5
			c2.4-1.4,6.1-1.6,8.2-0.3l45.9,26.5c1,0.6,1.5,1.4,1.5,2.3c0,1.1-0.8,2.1-2.1,2.9l-16.4,9.5c-1.3,0.8-3,1.2-4.6,1.2
			C169.4,170.1,168.1,169.8,167.1,169.3z M138.5,128.7l-16.4,9.5c-1.1,0.6-1.7,1.5-1.7,2.3c0,0.6,0.4,1.2,1.2,1.7l45.9,26.5
			c1.9,1.1,5.3,1,7.5-0.3l16.4-9.5c1.1-0.6,1.7-1.5,1.7-2.3c0-0.6-0.4-1.2-1.2-1.7L146,128.4c-0.9-0.5-2-0.7-3.2-0.7
			C141.3,127.6,139.8,128,138.5,128.7z"/>
	</g>
	<path fill="#F5959C" d="M152.4,146.9c0.9-0.9,2.5-1,3.4,0c0.9,0.9,1,2.5,0,3.4l-2.7,2.7c-0.9,0.9-2.5,1-3.4,0c-0.9-0.9-1-2.5,0-3.4
		L152.4,146.9z"/>
	<path fill="#F5959C" d="M140.6,143.8c0.9-0.9,2.5-1,3.4,0c0.9,0.9,1,2.5,0,3.4l-2.7,2.7c-0.9,0.9-2.5,1-3.4,0c-0.9-0.9-1-2.5,0-3.4
		L140.6,143.8z"/>
	<g>
		
			<linearGradient id="SVGID_5_" gradientUnits="userSpaceOnUse" x1="5531.7354" y1="150.6063" x2="5565.6353" y2="150.6063" gradientTransform="matrix(-1 0 0 1 5673.437 0)">
			<stop  offset="1.081080e-02" style="stop-color:#A4ADD8"/>
			<stop  offset="1" style="stop-color:#E7F6FD"/>
		</linearGradient>
		<path fill="url(#SVGID_5_)" d="M140.5,150.9c-3,1.7-6.1,3.4-9.1,5.1c-2.6,1.5-6,4.2-9.2,4.1c-3.8-0.2-5.6-3.6-7.5-6.4
			c-2.1-3-4.2-6-6.3-8.9c-1.9-2.6,2.5-5.1,4.3-2.5c1.6,2.2,3.1,4.4,4.7,6.6c1.4,1.9,3.3,6.5,6.1,5.9c2.6-0.6,5.7-3.2,8-4.5
			c2.2-1.2,4.4-2.5,6.6-3.7C140.8,144.9,143.3,149.3,140.5,150.9L140.5,150.9z"/>
	</g>
	<g>
		
			<linearGradient id="SVGID_6_" gradientUnits="userSpaceOnUse" x1="5533.4131" y1="181.6903" x2="5569.2949" y2="181.6903" gradientTransform="matrix(-1 0 0 1 5673.437 0)">
			<stop  offset="1.081080e-02" style="stop-color:#2C3E99"/>
			<stop  offset="0.2054" style="stop-color:#313788"/>
			<stop  offset="0.4998" style="stop-color:#353079"/>
			<stop  offset="0.7724" style="stop-color:#362C70"/>
			<stop  offset="1" style="stop-color:#372A6D"/>
		</linearGradient>
		<path fill="url(#SVGID_6_)" d="M127.2,172.4c-7.3,3.4-14.1,8-21.1,11.9c-4.5,2.5-0.5,9.5,4,6.9c6.1-3.4,12.2-6.9,18.3-10.3
			c0.4-0.2,0.9-0.6,1.5-1c0-0.3,0.3-0.5,1.3-0.6c-0.4,0.1-0.9,0.3-1.3,0.6c0,0.3,0.2,0.8,0.4,1.6c0,0.2,0.1,0.3,0.1,0.5l9.6,5.5
			C138.7,177.4,135.3,168.7,127.2,172.4z"/>
		<path fill="#2B4381" d="M129.9,180c0.5-0.3,0.9-0.6,1.3-0.6C130.2,179.6,129.9,179.7,129.9,180z"/>
	</g>
	<g>
		<path fill="#212F60" d="M109.6,120.8c0.6-0.3,1.3-0.4,1.7-0.9c0.3-0.4,0.4-1.1,0.8-1.5c0.9-1,2.8,0.1,4-0.6
			c0.3-0.2,0.5-0.5,0.9-0.6c1.2-0.5,2.2,1.3,3.4,1.1c0.3-0.1,0.6-0.3,1-0.3c0.3,0,0.5,0.2,0.7,0.4c0.4,0.4,0.8,1,1.1,1.8
			c0.3,0.1,0.5,0.3,0.6,0.6c0.1,0.2,0.2,0.5,0.2,0.8c0,0.8-0.2,1.8-0.7,2.7c-0.1,0.4-0.2,0.8-0.3,1.1c-0.4,1-1.1,1.8-1.8,2.3
			c-0.3,0.2-0.7,0.5-1,0.7v1.4c0,0.3-0.2,0.5-0.5,0.5c-0.1,0-0.2,0-0.3-0.1c0-0.1,0-0.3,0-0.4c0-1-0.4-1.8-1-1.8c-0.5,0-1,0.8-1,1.8
			c0,0.5,0.1,1,0.3,1.3c-0.3,0.7-0.6,1.5-1,2.2c-0.6,1-1.7,1.7-2.7,1.2c-0.2-0.1-0.3-0.2-0.5-0.4c-0.2-0.2-0.4-0.5-0.6-0.8
			c-0.2-0.1-0.3-0.2-0.4-0.3c-0.2-0.3-0.2-0.6-0.4-0.8c-0.4-0.6-1.4-0.8-1.6-1.5c-0.1-0.4,0.1-0.9,0-1.4c-0.2-0.7-1.1-1-1.4-1.6
			c-0.3-0.6,0.1-1.3,0.2-2c0.2-1.2-0.3-2.3-0.8-3.4C108.4,121.8,109,121.1,109.6,120.8z"/>
		<path fill="#F5959C" d="M114,134.5c0.9,0.5,2.1-0.3,2.7-1.2c0.4-0.7,0.7-1.5,1-2.2c-0.2-0.3-0.3-0.8-0.3-1.3c0-1,0.4-1.8,1-1.8
			c0.5,0,1,0.8,1,1.8c0,0.1,0,0.3,0,0.4c0.6,0.1,0.8-0.1,0.8-0.4v-1.4c0.3-0.2,0.7-0.5,1-0.7c0.7-0.5,1.4-1.4,1.8-2.3v4.4
			c0,3-2.3,5.4-5.1,5.7c0,1.9,0.1,3.7,0.1,5.6c0,1.7-4.1,1.7-4.2,0c0-2.3-0.1-4.5-0.1-6.8C113.7,134.3,113.9,134.4,114,134.5z"/>
	</g>
	<path fill="#F9AA84" d="M118,142.9c1-0.6,0.8-1.5-0.3-2.2l-1.4-0.8c-1.1-0.6-2.8-0.7-3.7-0.2c-1,0.6-0.8,1.5,0.3,2.2l1.4,0.8
		C115.3,143.4,117,143.5,118,142.9z"/>
	<path fill="#18264F" d="M135.3,107.8l89.1,51.6c2.7,1.5,6-0.4,6-3.5V105c0-2.7-1.4-5.1-3.7-6.4L135,45.5c-0.8-0.4-1.7,0.1-1.7,1
		v57.9C133.3,105.8,134.1,107.1,135.3,107.8z"/>
	<g>
		<polygon fill="#4C51A3" points="147.2,67.5 136.7,61.5 136.7,62.6 147.2,68.6 		"/>
		<polygon fill="#4C51A3" points="147.2,71.5 136.7,65.4 136.7,66.5 147.2,72.6 		"/>
		<polygon fill="#4C51A3" points="136.7,55.1 136.7,56.2 140.4,58.3 140.4,57.2 		"/>
		<polygon fill="#4C51A3" points="136.7,57.2 136.7,58.3 140.4,60.4 140.4,59.3 		"/>
		<polygon fill="#4C51A3" points="136.7,72.3 136.7,73.3 139.8,75.1 139.8,74 		"/>
		<polygon fill="#4C51A3" points="136.7,74.4 136.7,75.5 139.8,77.3 139.8,76.2 		"/>
		<polygon fill="#4C51A3" points="136.7,80.8 136.7,81.9 143.8,86 143.8,84.9 		"/>
		<polygon fill="#4C51A3" points="136.7,85.1 136.7,86.2 143.8,90.3 143.8,89.2 		"/>
		<polygon fill="#4C51A3" points="136.7,87.3 136.7,88.4 139.4,90 139.4,88.9 		"/>
		<polygon fill="#4C51A3" points="136.7,93.7 136.7,94.8 139.4,96.4 139.4,95.3 		"/>
		<polygon fill="#4C51A3" points="136.7,98 136.7,99.1 139.4,100.7 139.4,99.6 		"/>
	</g>
	<g>
		<path fill="#2B4381" d="M141.1,185.5c0.3-0.1,0.5-0.3,0.8-0.3C141.3,185.3,141.1,185.3,141.1,185.5z"/>
		
			<linearGradient id="SVGID_7_" gradientUnits="userSpaceOnUse" x1="5521.2026" y1="187.7973" x2="5559.3086" y2="187.7973" gradientTransform="matrix(-1 0 0 1 5673.437 0)">
			<stop  offset="1.081080e-02" style="stop-color:#2C3E99"/>
			<stop  offset="0.2054" style="stop-color:#313788"/>
			<stop  offset="0.4998" style="stop-color:#353079"/>
			<stop  offset="0.7724" style="stop-color:#362C70"/>
			<stop  offset="1" style="stop-color:#372A6D"/>
		</linearGradient>
		<path fill="url(#SVGID_7_)" d="M115.9,191.1c4.9-2.9,9.7-6,14.6-8.9c2.5-1.4,4.9-2.8,7.4-4.1c7.9-3.9,11,4.7,12.8,10.6
			c0.6,2,1.1,3.9,1.5,5.9l-9.9-5.7c-0.2-0.7-0.4-1.4-0.7-2.2c-0.3-0.8-0.5-1.2-0.6-1.4c0.3-0.1,0.5-0.3,0.8-0.3
			c-0.6,0.1-0.8,0.1-0.8,0.3c-0.7,0.4-1.5,1-2.1,1.3c-6.5,3.8-12.1,7.3-18.4,11C116.2,200.4,111.5,193.7,115.9,191.1z"/>
	</g>
	
		<linearGradient id="SVGID_8_" gradientUnits="userSpaceOnUse" x1="5546.2202" y1="191.9659" x2="5544.7612" y2="152.289" gradientTransform="matrix(-1 0 0 1 5673.437 0)">
		<stop  offset="1.081080e-02" style="stop-color:#A4ADD8"/>
		<stop  offset="1" style="stop-color:#E7F6FD"/>
	</linearGradient>
	<path fill="url(#SVGID_8_)" d="M104.6,154.8c0.4-6.1,2.6-17.1,8-15.5c4.9,1.4,9,2.5,10.9,6.2c0.2,0.1,0.3,0.2,0.5,0.4
		c1.6,2.2,8,13.1,10.8,12.5c2.6-0.6,2.3-1.3,14.6-8.2c2.8-1.6,5.3,2.7,2.5,4.3c-14.5,8.2-15.4,9.3-18.3,9.2c-3.1-0.1-4.3-1.7-9-8.4
		c-0.3,4.7-0.6,13.7-0.3,33.2c0,1.6,0.7,6.9-0.2,8.2c-0.9,1.5-1.6,2.6-3.2,2.5c-1.7-0.1-3.3-0.6-4.8-1.4c-12-6.6-12.1-7.9-12.5-15.4
		C103,173.3,104.1,164,104.6,154.8z"/>
</g>
<g>
	<path opacity="0.43" fill="#30439B" d="M392.9,350.7l-40.4-23.5c-4-2.3-8.9-2.3-12.9,0L288,357.1l45.4,27H353l40.1-24.8
		C396.3,357.4,396.2,352.7,392.9,350.7z"/>
	
		<linearGradient id="SVGID_9_" gradientUnits="userSpaceOnUse" x1="6648.4043" y1="356.917" x2="6754.2236" y2="356.917" gradientTransform="matrix(-1 0 0 1 7042.2661 0)">
		<stop  offset="0.2919" style="stop-color:#EAE9F5"/>
		<stop  offset="0.3893" style="stop-color:#E2E2F1"/>
		<stop  offset="0.5285" style="stop-color:#CFCEE8"/>
		<stop  offset="0.627" style="stop-color:#BFBDDF"/>
	</linearGradient>
	<path fill="url(#SVGID_9_)" d="M381.6,329.4v25.3c0,1.2-0.6,2.5-1.8,3.2l-43,24.9c-3.9,2.3-8.8,2.3-12.7,0l-42.8-24.8
		c-1.2-0.7-1.8-2-1.7-3.3c-0.3,0-0.3-25.3-0.3-25.3H381.6z"/>
	<path fill="#FFFFFF" d="M336.8,357.2l43-24.9c2.4-1.4,2.4-4.9,0-6.3l-43.2-25c-3.6-2.1-8-2.1-11.5,0l-43.7,25.3
		c-2.3,1.4-2.3,4.8,0,6.1l42.8,24.8C328,359.5,332.9,359.5,336.8,357.2z"/>
	<g>
		
			<linearGradient id="SVGID_10_" gradientUnits="userSpaceOnUse" x1="6602.6304" y1="274.6893" x2="6677.6968" y2="274.6893" gradientTransform="matrix(-1 0 0 1 7016.7173 0)">
			<stop  offset="0" style="stop-color:#F37025"/>
			<stop  offset="1" style="stop-color:#EF4039"/>
		</linearGradient>
		<path fill="url(#SVGID_10_)" d="M390.7,296.6c-1.4,0-2.7-0.3-3.7-0.8l-46.4-26.9c-1-0.6-1.6-1.4-1.6-2.4c0-1.1,0.8-2.2,2.2-3
			l16.5-9.6c2.5-1.4,6.2-1.6,8.4-0.3l46.4,26.9c1,0.6,1.6,1.4,1.6,2.4c0,1.1-0.8,2.2-2.2,3l-16.5,9.6
			C394,296.2,392.3,296.6,390.7,296.6z M387.4,295c1.9,1.1,5.3,1,7.5-0.3l16.5-9.6c1.1-0.6,1.7-1.5,1.7-2.2c0-0.6-0.4-1.2-1.2-1.6
			l-46.4-26.9c-1.9-1.1-5.3-1-7.5,0.3l-16.5,9.6c-1.1,0.6-1.7,1.5-1.7,2.2c0,0.6,0.4,1.2,1.2,1.6L387.4,295z"/>
	</g>
	<path fill="#18264F" d="M354.9,233.5l90.2,52.2c2.7,1.6,6.1-0.4,6.1-3.5v-51.5c0-2.7-1.4-5.2-3.8-6.5l-92.8-53.7
		c-0.8-0.4-1.7,0.1-1.7,1V230C352.8,231.5,353.6,232.8,354.9,233.5z"/>
	<g>
		<polygon fill="#78D2F7" points="366.9,192.8 356.3,186.6 356.3,187.7 366.9,193.9 		"/>
		<polygon fill="#78D2F7" points="366.9,196.7 356.3,190.6 356.3,191.7 366.9,197.8 		"/>
		<polygon fill="#78D2F7" points="356.3,180.1 356.3,181.2 360,183.4 360,182.3 		"/>
		<polygon fill="#78D2F7" points="356.3,182.3 356.3,183.4 360,185.5 360,184.4 		"/>
		<polygon fill="#78D2F7" points="356.3,197.5 356.3,198.6 359.4,200.4 359.4,199.3 		"/>
		<polygon fill="#78D2F7" points="356.3,199.7 356.3,200.8 359.4,202.6 359.4,201.5 		"/>
		<polygon fill="#78D2F7" points="356.3,206.2 356.3,207.3 363.5,211.4 363.5,210.3 		"/>
		<polygon fill="#78D2F7" points="356.3,210.5 356.3,211.6 363.5,215.8 363.5,214.7 		"/>
		<polygon fill="#78D2F7" points="356.3,212.8 356.3,213.9 359,215.5 359,214.4 		"/>
		<polygon fill="#78D2F7" points="356.3,219.3 356.3,220.4 359,221.9 359,220.8 		"/>
		<polygon fill="#78D2F7" points="356.3,223.6 356.3,224.7 359,226.3 359,225.2 		"/>
	</g>
	<g>
		<g>
			
				<linearGradient id="SVGID_11_" gradientUnits="userSpaceOnUse" x1="269.442" y1="309.1653" x2="305.755" y2="309.1653" gradientTransform="matrix(-1 0 0 1 633.1035 0)">
				<stop  offset="0" style="stop-color:#6055A4"/>
				<stop  offset="0.2757" style="stop-color:#4A2D8B"/>
			</linearGradient>
			<path fill="url(#SVGID_11_)" d="M330.3,309.2c5.7-2.1,11.4-4.2,17.1-6.4c5.7-2.1,14.6-5.4,16.1,3.8c0.5,3.1,0.2,6.4-0.2,9.7
				l-8.7-5c0-1.1,0.1-2,0.1-2s-5.5,2-7.8,2.9c-4.7,1.8-9.5,3.5-14.2,5.3C327.3,319.5,325.1,311.1,330.3,309.2z"/>
		</g>
		<g>
			
				<linearGradient id="SVGID_12_" gradientUnits="userSpaceOnUse" x1="256.4723" y1="316.8571" x2="292.4246" y2="316.8571" gradientTransform="matrix(-1 0 0 1 633.1035 0)">
				<stop  offset="0.1297" style="stop-color:#6055A4"/>
				<stop  offset="0.7778" style="stop-color:#4A2D8B"/>
			</linearGradient>
			<path fill="url(#SVGID_12_)" d="M343.6,316.7c5.6-2.1,11.3-4.2,16.9-6.3c2.1-0.8,4.2-1.9,6.5-2.1c4.5-0.4,8.6,2.8,9.4,7.2
				c0.4,2.6,0.2,5.5-0.2,8.3l-8.4-4.9c0-0.1,0-0.2,0-0.3c-0.2-1.5,0.3-1.1-1-1.3c-1.6-0.3-5.5,2.1-7,2.6c-4.6,1.7-9.2,3.4-13.7,5.1
				C340.7,327.1,338.4,318.7,343.6,316.7z"/>
		</g>
		<path fill="#F27A93" d="M341,271.2c1.3-0.8,1.2-2.1-0.4-3l-2.6-1.5c-1.5-0.9-3.9-1-5.2-0.2c-1.3,0.8-1.2,2.1,0.4,3l2.6,1.5
			C337.3,271.9,339.7,272,341,271.2z"/>
		<g>
			<path fill="#F5959C" d="M370.8,278.9c-2.3,1.3-4.6,2.6-6.9,3.9c-2.7,1.5-6.1,4.4-9.1,5.1c-1.8,0.5-3.6-0.8-5.1-2.8l-3.3,2.3
				c1.7,2.9,3.7,5.8,7.7,5.3c3.2-0.4,6.6-3.1,9.3-4.7c3.2-1.8,6.4-3.6,9.6-5.4C375.4,281.3,373.2,277.5,370.8,278.9z"/>
			
				<linearGradient id="SVGID_13_" gradientUnits="userSpaceOnUse" x1="295.4797" y1="326.4231" x2="295.4797" y2="281.3928" gradientTransform="matrix(-1 0 0 1 633.1035 0)">
				<stop  offset="1.081080e-02" style="stop-color:#A4ADD8"/>
				<stop  offset="1" style="stop-color:#E7F6FD"/>
			</linearGradient>
			<path fill="url(#SVGID_13_)" d="M326.1,299.6c1.1-9,1.7-16.6,4-25.3c2.8-10.6,7.2-9.4,10.5-7.2c4.6,3.1,6.7,6,6.8,14.4
				c0.7,1.3,1.5,2.6,2.4,3.7l-2.5,1.8c0,0.5-0.1,1-0.1,1.6c-0.9,12.3-1.9,11.4,0.7,29.2c0.3,2.2,0.6,4.6-0.4,6.5
				c-1.6,3.1-5.1,2.9-8,2.1C326.8,323.2,324.3,314.6,326.1,299.6z"/>
		</g>
		<g>
			<g>
				<path fill="#F5959C" d="M336,259.3c0.1,2.7,0.1,5.4,0.2,8.1c0,1.9,4.5,1.9,4.5,0c-0.1-2.7-0.1-5.4-0.2-8.1
					C340.5,257.5,336,257.5,336,259.3L336,259.3z"/>
			</g>
			<path fill="#F5959C" d="M337.8,261.4c-0.4,0-0.8-0.2-1.1-0.5c-2-2.4-1.9-7.1-0.6-10.4c0.9-2.2,1.6-3.2,5.1-3.3
				c0.9,0,3.2-0.2,4.1,0.9c0.3,0.1,0.5,0.2,0.7,0.4v6.8c0,3.4-2.7,6.1-6.1,6.1H337.8z"/>
			<path fill="#F27A93" d="M344.2,253.1c-1.1,0.8-2.4,1.5-3.2,2.7c-0.7,1-1,2.3-1.6,3.3c-0.6,1.1-1.9,1.9-2.9,1.3
				c-2-1.1-4.7-8.4-2.3-12.9c1.7-3.1,9.5-2.7,11.4-0.8C347.7,248.6,345.8,251.9,344.2,253.1z"/>
		</g>
		
			<linearGradient id="SVGID_14_" gradientUnits="userSpaceOnUse" x1="-45.33" y1="266.0784" x2="-14.4495" y2="266.0784" gradientTransform="matrix(1 0 0 1 361.139 0)">
			<stop  offset="0.1189" style="stop-color:#FAA65A"/>
			<stop  offset="0.6749" style="stop-color:#EE336F"/>
			<stop  offset="1" style="stop-color:#EE2D70"/>
		</linearGradient>
		<path fill="url(#SVGID_14_)" d="M330.4,252.1c-0.4,2.5,0.2,5.3-1.2,7.4c-1.6,2.3-7.3,3.7-10.8,7.9c-5.8,7-1.4,18.3,8.8,20.2
			c10.2,1.9,15.4-7.7,10.2-16.1c-2.6-4.3,1.6-3.9,3.1-6.1c0.7-1.1,1.6-3.4,1-4.5c-0.5-1.2-0.6-1.3-1-2.5c-1.9-5.6,5.1-3.4,6.1-8
			C348.4,242.2,332.2,241.9,330.4,252.1z"/>
		<path fill="#F5959C" d="M369.7,281.8c-0.7-1.2-0.2-2.7,1-3.4l2.7-1.5c1.2-0.7,2.7-0.2,3.4,1c0.7,1.2,0.2,2.7-1,3.4l-2.7,1.5
			C371.9,283.4,370.4,283,369.7,281.8z"/>
	</g>
	<g>
		<g>
			<path opacity="0.38" fill="#A4AED8" d="M400.1,244c7,4.1,12.8,0.8,12.8-7.3c0-8.1-5.7-18-12.8-22.1c-0.1-0.1-0.1-7.1-0.1-7.1
				c10.6,6.1,19,20.7,19,32.7c0,12-8.5,16.8-18.9,10.8c-0.1-0.1-0.1-7.1-0.1-7.1C400,244,400,244,400.1,244z"/>
			
				<linearGradient id="SVGID_15_" gradientUnits="userSpaceOnUse" x1="232.9351" y1="234.8389" x2="251.6559" y2="234.8389" gradientTransform="matrix(-1 0 0 1 633.1035 0)">
				<stop  offset="0" style="stop-color:#FAA65A"/>
				<stop  offset="1" style="stop-color:#EE2D70"/>
			</linearGradient>
			<path fill="url(#SVGID_15_)" d="M387.6,222c0,8.2,5.6,18,12.6,22.1v7c-10.3-6.1-18.7-20.6-18.7-32.5
				C381.4,218.5,387.6,222,387.6,222z"/>
		</g>
	</g>
</g>
<g>
	<g opacity="0.36">
		<path fill="#A4AED8" d="M163.6,95.5c0-10.2,7.2-14.3,16.1-9.2s16.1,17.6,16.1,27.8c0,10.2-7.2,14.3-16.1,9.2
			C170.8,118.2,163.6,105.7,163.6,95.5z M164.6,96.1c0,9.5,6.7,21.2,15,26c8.3,4.8,15,0.9,15-8.6c0-9.5-6.7-21.2-15-26
			C171.4,82.8,164.6,86.6,164.6,96.1z"/>
	</g>
	
		<linearGradient id="SVGID_16_" gradientUnits="userSpaceOnUse" x1="883.7527" y1="1987.2393" x2="923.9554" y2="1987.2393" gradientTransform="matrix(-0.866 -0.5 0 1.1547 962.174 -1738.2115)">
		<stop  offset="0" style="stop-color:#FAA65A"/>
		<stop  offset="1" style="stop-color:#EE2D70"/>
	</linearGradient>
	<path fill="url(#SVGID_16_)" d="M162,94.5c0-1.2,0.8-1.7,1.9-1.1c1,0.6,1.9,2,1.9,3.2c0.1,8.8,6.2,19.3,13.7,23.6
		c7.5,4.4,13.7,0.9,13.7-7.8c0-8.6-6-19.1-13.5-23.5c-1.2-0.8-1.9-2.1-1.9-3.3c0-1.1,0.8-1.6,1.7-1.1c9.8,5.9,17.4,19.2,17.4,30.1
		c0,11-7.8,15.5-17.4,9.9c-9.5-5.5-17.2-18.8-17.4-29.7C162,94.7,162,94.6,162,94.5z"/>
</g>
<g>
	<path opacity="0.43" fill="#30439B" d="M277.5,287l-38.5-22.4c-3.8-2.2-8.5-2.2-12.3,0l-49.2,28.5l43.3,25.8h18.6l38.2-23.6
		C280.7,293.4,280.7,288.9,277.5,287z"/>
	<g>
		<g>
			<g>
				
					<linearGradient id="SVGID_17_" gradientUnits="userSpaceOnUse" x1="-2129.7039" y1="292.1653" x2="-2024.7404" y2="292.1653" gradientTransform="matrix(-1 0 0 1 -1846.8335 0)">
					<stop  offset="0.2919" style="stop-color:#EAE9F5"/>
					<stop  offset="0.3893" style="stop-color:#E2E2F1"/>
					<stop  offset="0.5285" style="stop-color:#CFCEE8"/>
					<stop  offset="0.627" style="stop-color:#BFBDDF"/>
				</linearGradient>
				<path fill="url(#SVGID_17_)" d="M270.7,264.9v25.1c0,1.2-0.6,2.4-1.8,3.1l-42.6,24.7c-3.9,2.3-8.7,2.3-12.6,0l-42.5-24.6
					c-1.2-0.7-1.8-2-1.7-3.2c-0.3,0-0.3-25.1-0.3-25.1H270.7z"/>
				<path fill="#FFFFFF" d="M226.3,292.4l42.6-24.7c2.4-1.4,2.4-4.9,0-6.3L226,236.7c-3.5-2-7.9-2-11.4,0l-43.4,25.1
					c-2.3,1.3-2.3,4.7,0,6.1l42.5,24.6C217.6,294.7,222.4,294.7,226.3,292.4z"/>
				<g>
					
						<linearGradient id="SVGID_18_" gradientUnits="userSpaceOnUse" x1="-40.0264" y1="210.6012" x2="34.5601" y2="210.6012" gradientTransform="matrix(1 0 0 1 268.435 0)">
						<stop  offset="0" style="stop-color:#F37025"/>
						<stop  offset="1" style="stop-color:#EF4039"/>
					</linearGradient>
					<path fill="url(#SVGID_18_)" d="M279.7,232.4c-1.4,0-2.7-0.3-3.7-0.9l-46-26.6c-1-0.6-1.6-1.5-1.6-2.4c0-1.1,0.8-2.2,2.2-3
						L247,190c2.5-1.4,6.2-1.6,8.4-0.3l46,26.6c1,0.6,1.6,1.5,1.6,2.4c0,1.1-0.8,2.2-2.2,3l-16.4,9.5
						C283.1,232,281.3,232.4,279.7,232.4z M276.5,230.7c1.9,1.1,5.2,0.9,7.4-0.3l16.4-9.5c1.1-0.6,1.7-1.4,1.7-2.2
						c0-0.6-0.4-1.1-1.1-1.6l-46-26.6c-1.9-1.1-5.2-0.9-7.4,0.3l-16.4,9.5c-1.1,0.6-1.7,1.4-1.7,2.2c0,0.6,0.4,1.1,1.1,1.6
						L276.5,230.7z"/>
				</g>
				<path fill="#F5959C" d="M261.3,208.9c0.9-1,2.5-1,3.4,0c0.9,0.9,1,2.5,0,3.4l-2.7,2.7c-0.9,1-2.5,1-3.4,0c-0.9-0.9-1-2.5,0-3.4
					L261.3,208.9z"/>
				<path fill="#F5959C" d="M249.5,205.9c0.9-1,2.5-1,3.4,0c0.9,0.9,1,2.5,0,3.4l-2.7,2.7c-0.9,0.9-2.5,1-3.4,0
					c-0.9-0.9-1-2.5,0-3.4L249.5,205.9z"/>
				<g>
					
						<linearGradient id="SVGID_19_" gradientUnits="userSpaceOnUse" x1="-2122.9656" y1="212.6999" x2="-2088.9448" y2="212.6999" gradientTransform="matrix(-1 0 0 1 -1872.3824 0)">
						<stop  offset="1.081080e-02" style="stop-color:#A4ADD8"/>
						<stop  offset="1" style="stop-color:#E7F6FD"/>
					</linearGradient>
					<path fill="url(#SVGID_19_)" d="M249.4,213c-3.1,1.7-6.1,3.4-9.2,5.2c-2.6,1.5-6.1,4.2-9.3,4.1c-3.8-0.2-5.6-3.6-7.6-6.4
						c-2.1-3-4.2-6-6.4-9c-1.9-2.6,2.5-5.2,4.3-2.5c1.6,2.2,3.1,4.4,4.7,6.6c1.4,1.9,3.3,6.6,6.1,5.9c2.6-0.6,5.7-3.2,8.1-4.5
						c2.2-1.2,4.4-2.5,6.6-3.7C249.6,207,252.2,211.4,249.4,213L249.4,213z"/>
				</g>
				<g>
					
						<linearGradient id="SVGID_20_" gradientUnits="userSpaceOnUse" x1="-2121.282" y1="243.8941" x2="-2085.272" y2="243.8941" gradientTransform="matrix(-1 0 0 1 -1872.3824 0)">
						<stop  offset="1.081080e-02" style="stop-color:#2C3E99"/>
						<stop  offset="0.2054" style="stop-color:#313788"/>
						<stop  offset="0.4998" style="stop-color:#353079"/>
						<stop  offset="0.7724" style="stop-color:#362C70"/>
						<stop  offset="1" style="stop-color:#372A6D"/>
					</linearGradient>
					<path fill="url(#SVGID_20_)" d="M236.1,234.6c-7.3,3.4-14.2,8-21.2,11.9c-4.5,2.5-0.5,9.5,4.1,7c6.1-3.4,12.2-6.9,18.3-10.3
						c0.4-0.2,0.9-0.6,1.5-1c0-0.3,0.4-0.5,1.3-0.6c-0.4,0.1-0.9,0.3-1.3,0.6c0,0.3,0.2,0.8,0.4,1.7c0,0.2,0.1,0.3,0.1,0.5l9.7,5.6
						C247.6,239.6,244.1,230.9,236.1,234.6z"/>
					<path fill="#2B4381" d="M238.7,242.2c0.5-0.3,0.9-0.6,1.3-0.6C239.1,241.8,238.8,241.9,238.7,242.2z"/>
				</g>
				<path fill="#F9AA84" d="M226.8,205c1-0.6,0.8-1.5-0.3-2.2l-1.4-0.8c-1.1-0.6-2.8-0.7-3.8-0.2c-1,0.6-0.8,1.5,0.3,2.2l1.4,0.8
					C224.1,205.5,225.8,205.5,226.8,205z"/>
				<path fill="#18264F" d="M244.2,169.8l89.4,51.8c2.7,1.6,6-0.4,6-3.5V167c0-2.7-1.4-5.1-3.7-6.5l-92-53.3c-0.8-0.4-1.7,0.1-1.7,1
					v58.1C242.2,167.7,242.9,169.1,244.2,169.8z"/>
				<g>
					<polygon fill="#F37366" points="256.1,129.3 245.6,123.2 245.6,124.3 256.1,130.4 					"/>
					<polygon fill="#78D2F7" points="256.1,133.3 245.6,127.2 245.6,128.3 256.1,134.4 					"/>
					<polygon fill="#F37366" points="245.6,116.8 245.6,117.9 249.3,120 249.3,118.9 					"/>
					<polygon fill="#F37366" points="245.6,119 245.6,120.1 249.3,122.2 249.3,121.1 					"/>
					<polygon fill="#F37366" points="245.6,134.1 245.6,135.2 248.7,137 248.7,135.9 					"/>
					<polygon fill="#F37366" points="245.6,136.2 245.6,137.3 248.7,139.1 248.7,138 					"/>
					<polygon fill="#F37366" points="245.6,142.6 245.6,143.7 252.7,147.9 252.7,146.8 					"/>
					<polygon fill="#F37366" points="245.6,146.9 245.6,148 252.7,152.1 252.7,151.1 					"/>
					<polygon fill="#78D2F7" points="245.6,149.2 245.6,150.3 248.3,151.9 248.3,150.8 					"/>
					<polygon fill="#F37366" points="245.6,155.6 245.6,156.7 248.3,158.3 248.3,157.2 					"/>
					<polygon fill="#78D2F7" points="245.6,159.9 245.6,161 248.3,162.6 248.3,161.5 					"/>
				</g>
				<g>
					<path fill="#2B4381" d="M250,247.7c0.3-0.1,0.5-0.3,0.8-0.3C250.2,247.5,250,247.5,250,247.7z"/>
					
						<linearGradient id="SVGID_21_" gradientUnits="userSpaceOnUse" x1="-2133.5352" y1="250.0229" x2="-2095.2939" y2="250.0229" gradientTransform="matrix(-1 0 0 1 -1872.3824 0)">
						<stop  offset="1.081080e-02" style="stop-color:#2C3E99"/>
						<stop  offset="0.2054" style="stop-color:#313788"/>
						<stop  offset="0.4998" style="stop-color:#353079"/>
						<stop  offset="0.7724" style="stop-color:#362C70"/>
						<stop  offset="1" style="stop-color:#372A6D"/>
					</linearGradient>
					<path fill="url(#SVGID_21_)" d="M224.7,253.3c4.9-2.9,9.7-6,14.7-8.9c2.5-1.4,4.9-2.8,7.5-4.1c8-3.9,11,4.7,12.8,10.7
						c0.6,2,1.1,3.9,1.5,5.9l-9.9-5.7c-0.2-0.7-0.4-1.4-0.7-2.2c-0.3-0.9-0.5-1.2-0.6-1.4c0.3-0.1,0.5-0.3,0.8-0.3
						c-0.6,0.1-0.8,0.1-0.8,0.3c-0.7,0.4-1.5,1-2.1,1.4c-6.5,3.8-12.1,7.3-18.4,11C225,262.7,220.2,256,224.7,253.3z"/>
				</g>
				
					<linearGradient id="SVGID_22_" gradientUnits="userSpaceOnUse" x1="-2108.4287" y1="254.2069" x2="-2109.8926" y2="214.3891" gradientTransform="matrix(-1 0 0 1 -1872.3824 0)">
					<stop  offset="1.081080e-02" style="stop-color:#A4ADD8"/>
					<stop  offset="1" style="stop-color:#E7F6FD"/>
				</linearGradient>
				<path fill="url(#SVGID_22_)" d="M213.4,216.9c0.4-6.1,2.6-17.1,8-15.6c4.9,1.4,9,2.5,10.9,6.2c0.2,0.1,0.3,0.2,0.5,0.4
					c1.6,2.2,8,13.2,10.8,12.6c2.6-0.6,2.3-1.3,14.6-8.3c2.8-1.6,5.4,2.8,2.5,4.4c-14.5,8.2-15.4,9.4-18.4,9.2
					c-3.1-0.1-4.4-1.7-9-8.4c-0.3,4.8-0.6,13.7-0.3,33.3c0,1.6,0.7,6.9-0.2,8.2c-0.9,1.5-1.6,2.6-3.2,2.5c-1.7-0.1-3.3-0.6-4.8-1.4
					c-12.1-6.6-12.2-7.9-12.6-15.5C211.8,235.5,212.8,226.2,213.4,216.9z"/>
			</g>
			<g>
				<path fill="#F5959C" d="M230.1,191.5c-0.3,0.2-0.7,0.4-1.1,0.6v1.2c0,0.3-0.3,0.5-0.6,0.5c-0.1,0-0.2,0-0.3-0.1
					c0-0.1,0-0.2,0-0.4c0-0.9-0.5-1.6-1.1-1.6c-0.6,0-1.1,0.7-1.1,1.6c0,0.5,0.1,0.9,0.3,1.2c-0.4,0.6-0.6,1.3-1.1,1.9
					c-0.6,0.8-1.9,1.5-2.9,1.1c-0.2-0.1-0.3-0.2-0.5-0.3c0,2,0.1,4,0.1,5.9c0,1.5,4.6,1.5,4.5,0c0-1.6-0.1-3.2-0.1-4.8
					c3.1-0.2,5.6-2.3,5.6-4.9v-3.8C231.6,190.3,230.8,191.1,230.1,191.5z"/>
				<path fill="#212F60" d="M222.4,197.4c1,0.4,2.3-0.2,2.9-1.1c0.4-0.6,0.7-1.3,1.1-1.9c-0.2-0.3-0.3-0.7-0.3-1.2
					c0-0.9,0.5-1.6,1.1-1.6c0.6,0,1.1,0.7,1.1,1.6c0,0.1,0,0.3,0,0.4c0.1,0.1,0.2,0.1,0.3,0.1c0.3,0,0.6-0.2,0.6-0.5v-1.2
					c0.4-0.2,0.7-0.4,1.1-0.6c0.7-0.4,1.5-1.2,1.9-2c0.2-0.3,0.3-0.6,0.4-1c0.5-0.8,0.8-1.6,0.8-2.3c0-0.2-0.1-0.5-0.2-0.7
					c-0.3-0.5-1.1-0.7-1.8-0.7c-0.3,0-0.5,0-0.8,0c-0.5,0.1-0.9,0.4-1.4,0.6c-3.1-0.6-7.7-0.3-9,1.6c-2.3,3.3-0.2,8.6,1.8,10.1
					C222.1,197.3,222.2,197.4,222.4,197.4z"/>
			</g>
		</g>
		<g>
			
				<linearGradient id="SVGID_23_" gradientUnits="userSpaceOnUse" x1="280.3511" y1="166.5764" x2="299.7299" y2="166.5764" gradientTransform="matrix(-1 0 0 1 588.9254 0)">
				<stop  offset="0" style="stop-color:#FFD33F"/>
				<stop  offset="1" style="stop-color:#F37366"/>
			</linearGradient>
			<path fill="url(#SVGID_23_)" d="M289.3,180.3c7.2,4.2,13,0.8,13-7.4c0-8.3-5.8-18.3-13-22.5c-0.2-0.1-0.2-7.2-0.2-7.2
				c10.8,6.2,19.4,21.1,19.4,33.3c0,12.2-8.6,17.1-19.2,11c-0.2-0.1-0.2-7.2-0.2-7.2C289.2,180.2,289.3,180.2,289.3,180.3z"/>
			<path opacity="0.38" fill="#9A97CA" d="M289.5,143.2v7.2c-7.1-4-12.8-0.7-12.9,7.4l-6.2-3.5C270.4,142.2,278.9,137.3,289.5,143.2
				z"/>
		</g>
	</g>
</g>
<polygon fill="#FFD33F" points="400.3,217.2 393.9,226.1 400,242.4 406.4,233.5 "/>
<path fill="#212F60" d="M530,141c0-2.2-1.3-4.7-3-5.7c-1.6-0.9-3,0.1-3,2.2v8.7l5.9,3.4V141z"/>
<linearGradient id="SVGID_24_" gradientUnits="userSpaceOnUse" x1="527.0605" y1="204.0168" x2="527.0605" y2="153.1013">
	<stop  offset="0" style="stop-color:#FFD33F"/>
	<stop  offset="1" style="stop-color:#F37366"/>
</linearGradient>
<path fill="url(#SVGID_24_)" d="M524.1,146.3v75.1c0,2.2,1.3,4.7,3,5.7c1.6,0.9,3-0.1,3-2.2v-75L524.1,146.3z"/>
<g>
	<path fill="#FFD33F" d="M536.4,341.5l8.6-5c1-0.6,1.8-2.2,1.8-3.5c0-1.4-0.8-2-1.8-1.4l-8.6,5c-1,0.6-1.8,2.2-1.8,3.5
		C534.6,341.5,535.4,342.1,536.4,341.5z"/>
	<path fill="#FFD33F" d="M498.2,364l8.6-5c1-0.6,1.8-2.2,1.8-3.5c0-1.4-0.8-2-1.8-1.4l-8.6,5c-1,0.6-1.8,2.2-1.8,3.5
		C496.3,363.9,497.2,364.6,498.2,364z"/>
	<path fill="#FFD33F" d="M460.5,385.5l8.6-5c1-0.6,1.8-2.2,1.8-3.5c0-1.4-0.8-2-1.8-1.4l-8.6,5c-1,0.6-1.8,2.2-1.8,3.5
		C458.7,385.5,459.5,386.1,460.5,385.5z"/>
	<path fill="#FFD33F" d="M419.4,409.5l8.6-5c1-0.6,1.8-2.2,1.8-3.5c0-1.4-0.8-2-1.8-1.4l-8.6,5c-1,0.6-1.8,2.2-1.8,3.5
		C417.6,409.4,418.4,410.1,419.4,409.5z"/>
</g>
<linearGradient id="SVGID_25_" gradientUnits="userSpaceOnUse" x1="456.7626" y1="526.9633" x2="472.8618" y2="526.9633">
	<stop  offset="0" style="stop-color:#F37366"/>
	<stop  offset="0.2697" style="stop-color:#F58B63"/>
	<stop  offset="0.8601" style="stop-color:#FDC54B"/>
	<stop  offset="1" style="stop-color:#FFD33F"/>
</linearGradient>
<path fill="url(#SVGID_25_)" d="M463,531.1l9-5.2c1.3-0.7,1.1-2.1-0.4-2.9c-1.5-0.9-3.7-0.9-5-0.2l-9,5.2c-1.3,0.7-1.1,2.1,0.4,2.9
	C459.5,531.8,461.7,531.9,463,531.1z"/>
<linearGradient id="SVGID_26_" gradientUnits="userSpaceOnUse" x1="497.0389" y1="505.5175" x2="513.1376" y2="505.5175">
	<stop  offset="0" style="stop-color:#F37366"/>
	<stop  offset="0.2697" style="stop-color:#F58B63"/>
	<stop  offset="0.8601" style="stop-color:#FDC54B"/>
	<stop  offset="1" style="stop-color:#FFD33F"/>
</linearGradient>
<path fill="url(#SVGID_26_)" d="M503.3,509.7l9-5.2c1.3-0.7,1.1-2.1-0.4-2.9c-1.5-0.9-3.7-0.9-5-0.2l-9,5.2
	c-1.3,0.7-1.1,2.1,0.4,2.9C499.7,510.3,502,510.4,503.3,509.7z"/>
<linearGradient id="SVGID_27_" gradientUnits="userSpaceOnUse" x1="535.1037" y1="483.6109" x2="551.2029" y2="483.6109">
	<stop  offset="0" style="stop-color:#F37366"/>
	<stop  offset="0.2697" style="stop-color:#F58B63"/>
	<stop  offset="0.8601" style="stop-color:#FDC54B"/>
	<stop  offset="1" style="stop-color:#FFD33F"/>
</linearGradient>
<path fill="url(#SVGID_27_)" d="M541.4,487.8l9-5.2c1.3-0.7,1.1-2.1-0.4-2.9c-1.5-0.9-3.7-1-5-0.2l-9,5.2c-1.3,0.7-1.1,2.1,0.4,2.9
	C537.8,488.4,540.1,488.5,541.4,487.8z"/>
<linearGradient id="SVGID_28_" gradientUnits="userSpaceOnUse" x1="573.4751" y1="461.308" x2="589.5744" y2="461.308">
	<stop  offset="0" style="stop-color:#F37366"/>
	<stop  offset="0.2697" style="stop-color:#F58B63"/>
	<stop  offset="0.8601" style="stop-color:#FDC54B"/>
	<stop  offset="1" style="stop-color:#FFD33F"/>
</linearGradient>
<path fill="url(#SVGID_28_)" d="M579.7,465.5l9-5.2c1.3-0.7,1.1-2.1-0.4-2.9c-1.5-0.9-3.7-1-5-0.2l-9,5.2c-1.3,0.7-1.1,2.1,0.4,2.9
	C576.2,466.1,578.4,466.2,579.7,465.5z"/>
<g>
	<linearGradient id="SVGID_29_" gradientUnits="userSpaceOnUse" x1="444.4236" y1="528.5948" x2="444.4236" y2="403.6609">
		<stop  offset="0" style="stop-color:#F37366"/>
		<stop  offset="0.2697" style="stop-color:#F58B63"/>
		<stop  offset="0.8601" style="stop-color:#FDC54B"/>
		<stop  offset="1" style="stop-color:#FFD33F"/>
	</linearGradient>
	<path fill="url(#SVGID_29_)" d="M465.6,528.6h-2v-98.2c0-2.2-1.2-4.1-3.1-5.2l-37.3-19.8l0.9-1.8l37.3,19.8c2.6,1.4,4.2,4,4.2,6.9
		V528.6z"/>
</g>
<g>
	<linearGradient id="SVGID_30_" gradientUnits="userSpaceOnUse" x1="485.2863" y1="505.5176" x2="485.2863" y2="380.5849">
		<stop  offset="0" style="stop-color:#F37366"/>
		<stop  offset="0.2697" style="stop-color:#F58B63"/>
		<stop  offset="0.8601" style="stop-color:#FDC54B"/>
		<stop  offset="1" style="stop-color:#FFD33F"/>
	</linearGradient>
	<path fill="url(#SVGID_30_)" d="M506.5,505.5h-2v-98.2c0-2.2-1.2-4.1-3.1-5.1l-37.3-19.8l0.9-1.8l37.3,19.8c2.6,1.4,4.2,4,4.2,6.9
		V505.5z"/>
</g>
<g>
	<linearGradient id="SVGID_31_" gradientUnits="userSpaceOnUse" x1="522.9735" y1="483.6094" x2="522.9735" y2="358.6794">
		<stop  offset="0" style="stop-color:#F37366"/>
		<stop  offset="0.2697" style="stop-color:#F58B63"/>
		<stop  offset="0.8601" style="stop-color:#FDC54B"/>
		<stop  offset="1" style="stop-color:#FFD33F"/>
	</linearGradient>
	<path fill="url(#SVGID_31_)" d="M544.2,483.6h-2v-98.2c0-2.2-1.2-4.1-3.1-5.2l-37.3-19.8l0.9-1.8l37.3,19.8c2.6,1.4,4.2,4,4.2,6.9
		V483.6z"/>
</g>
<g>
	<linearGradient id="SVGID_32_" gradientUnits="userSpaceOnUse" x1="561.498" y1="461.537" x2="561.498" y2="336.6057">
		<stop  offset="0" style="stop-color:#F37366"/>
		<stop  offset="0.2697" style="stop-color:#F58B63"/>
		<stop  offset="0.8601" style="stop-color:#FDC54B"/>
		<stop  offset="1" style="stop-color:#FFD33F"/>
	</linearGradient>
	<path fill="url(#SVGID_32_)" d="M582.7,461.5h-2v-98.2c0-2.2-1.2-4.1-3.1-5.2l-37.3-19.8l0.9-1.8l37.3,19.8c2.6,1.4,4.2,4,4.2,6.9
		V461.5z"/>
</g>
<polygon fill="#FFD33F" points="288.1,153 281.7,161.9 287.8,178.2 294.2,169.3 "/>
<polygon fill="#FFD33F" points="179.7,92.2 173.4,101.1 179.5,117.4 185.9,108.6 "/>
<g>
	<path fill="#E98924" d="M432.1,24.3c0.2,0.1,0.3,0.1,0.5,0.2c0.1,0,0.2,0.1,0.2,0.1c0.2,0.1,0.4,0.2,0.6,0.3c0,0,0,0,0,0
		c0.5,0.3,0.9,0.6,1.4,0.9c0,0,0,0,0,0c1.8,1.3,3.5,3.1,5,5.3c0.8,1.2,1.5,2.6,2.1,4c0.5-0.9,1.2-1.7,1.9-2.4c1.3-1.1,3-1.6,4.7-1.5
		l0,0c0,0,0,0,0,0c0.2,0,0.3,0,0.5,0c0.3,0,0.6,0.1,0.9,0.2c0,0,0,0,0,0c0.2,0,0.4,0.1,0.6,0.2c0.1,0,0.2,0,0.2,0.1
		c0.1,0,0.3,0.1,0.5,0.2c1.6,0.6,2.8-0.6,2.7-2.8l-0.1-1.6l-0.1-1.6l-1.1-0.4l0.1,3.1c0,1.3-0.7,2.1-1.7,1.7
		c-0.2-0.1-0.4-0.1-0.5-0.2c-0.1,0-0.2-0.1-0.3-0.1c-0.5-0.1-0.9-0.2-1.4-0.3c-0.1,0-0.1,0-0.2,0c0,0-0.1,0-0.1,0
		c-0.4,0-0.8-0.1-1.1-0.1l0,0c-1.7,0-3.3,0.6-4.6,1.7c-0.4,0.4-0.8,0.8-1.2,1.2c-0.4-0.8-0.8-1.5-1.3-2.2c-1.4-2.2-3.1-4-4.8-5.4
		l0,0c-0.4-0.3-0.8-0.6-1.2-0.9c-0.1-0.1-0.2-0.1-0.3-0.2c-0.5-0.3-0.9-0.6-1.4-0.8c-0.1,0-0.2-0.1-0.2-0.1
		c-0.2-0.1-0.4-0.2-0.6-0.2c-1-0.4-1.8-1.7-1.8-3l-0.1-2.9l-1.1-0.4l0,1.5l0,1.5C429.2,21.4,430.5,23.6,432.1,24.3z"/>
	<path fill="#E98924" d="M451.5,36.6c-0.1,0-0.2-0.1-0.3-0.1c-0.2-0.1-0.4-0.1-0.7-0.2c0.3,1.2,0.4,2.4,0.5,3.6
		c0.2,6.7-3.6,10.4-8.6,8.2c-5-2.2-9.2-9.3-9.4-15.7c0-1.2,0.1-2.2,0.3-3.2c-0.2-0.1-0.4-0.2-0.7-0.3l0,0c-0.1-0.1-0.2-0.1-0.3-0.1
		c-0.1,0-0.2-0.1-0.3-0.1c-0.2,1-0.3,2.1-0.2,3.3c0.2,7.3,5,15.4,10.7,17.9c5.7,2.5,10-1.7,9.8-9.4c0-1.2-0.2-2.5-0.5-3.7
		C451.7,36.7,451.6,36.7,451.5,36.6z"/>
	<path fill="#E98924" d="M439.6,23.8c0.7,0,1.3,0.2,2,0.5c0.7,0.3,1.4,0.6,2.1,1.1c0.3-0.1,0.7-0.2,1-0.3l0.2,0l0,0
		c0.1,0,0.2,0,0.4-0.1c-1.2-1-2.4-1.9-3.8-2.4c-1.3-0.5-2.6-0.7-3.7-0.5c0.2,0.2,0.4,0.4,0.6,0.6C438.8,23,439.2,23.4,439.6,23.8z"
		/>
	<path fill="#E98924" d="M455.2,29.5c0.1,3-1.6,4.8-3.8,3.9c-0.2-0.1-0.3-0.1-0.4-0.2c-0.1,0-0.1,0-0.2-0.1
		c-0.4-0.1-0.9-0.2-1.3-0.3c0,0,0,0,0,0c-1.8-0.2-3.4,0.2-4.7,1.3c-1.2,1-2.1,2.5-2.6,4.3c-0.6-2.3-1.6-4.6-2.9-6.6
		c-1.4-2.2-3.1-4-4.9-5.1c-0.4-0.3-0.9-0.6-1.4-0.8c-0.1,0-0.1-0.1-0.2-0.1c-0.1-0.1-0.3-0.1-0.4-0.2c-2.2-0.9-4.1-3.9-4.2-6.8
		l-1.2-0.5c0.1,3.7,2.6,7.7,5.5,8.9c0,0,0.1,0,0.1,0c0.1,0,0.2,0.1,0.3,0.1c0.3,0.2,0.7,0.3,1,0.5c1.7,1,3.4,2.7,4.7,4.8
		c2,3,3.1,6.7,3.3,10.1l0,0l0,0l1.3,0.5c0,0,0,0,0-0.1l0,0c-0.1-3.4,0.9-6.1,2.7-7.6c1.1-1,2.6-1.4,4.1-1.2c0.1,0,0.3,0,0.4,0.1
		c0.3,0.1,0.7,0.2,1,0.3c0.1,0,0.2,0.1,0.3,0.1c0,0,0.1,0,0.1,0c2.9,1.2,5.2-1.2,5-5.2L455.2,29.5z"/>
	<path fill="#E98924" d="M432,21.3c0.2,0.1,0.4,0.2,0.6,0.3c0.1,0,0.2,0.1,0.3,0.1c0.6,0.3,1.2,0.6,1.8,1c0.2,0.1,0.4,0.2,0.6,0.4
		c0.5,0.4,1,0.8,1.5,1.2c1.6,1.4,3.2,3.2,4.5,5.2c0.2,0.3,0.3,0.5,0.5,0.8c0.2-0.1,0.3-0.3,0.5-0.4c1.2-1,2.7-1.6,4.3-1.8l0,0
		c0.5-0.1,1-0.1,1.5,0c0.2,0,0.3,0,0.5,0c0,0,0.1,0,0.1,0c0.6,0.1,1.1,0.2,1.7,0.4c0.1,0,0.2,0.1,0.3,0.1c0.2,0.1,0.4,0.1,0.6,0.2
		c0.3,0.1,0.6-0.1,0.6-0.6l-0.2-4.6l-0.1-1.5l-1.1-0.4l0.2,5.5c0,0-0.1,0-0.1,0c-0.1,0-0.2-0.1-0.3-0.1c-0.6-0.2-1.3-0.3-1.9-0.4
		c0,0-0.1,0-0.1,0c-0.5-0.1-1-0.1-1.5,0c-0.5,0-1,0.1-1.5,0.2l0,0c-1.3,0.3-2.4,0.8-3.5,1.6c-1.1-1.7-2.4-3.1-3.7-4.4
		c-0.5-0.5-1.1-1-1.6-1.4c-0.5-0.4-1-0.8-1.6-1.1c-0.7-0.4-1.3-0.8-2-1.1c-0.1,0-0.2-0.1-0.3-0.1c0,0-0.1,0-0.1-0.1l-0.2-5.2
		l-1.1-0.4l0,1.5l0.1,4.4C431.4,20.7,431.7,21.2,432,21.3z"/>
	<path fill="#E98924" d="M437.3,33.2c-0.4-0.5-0.8-1-1.2-1.5c-0.5,0.3-0.8,1-0.7,1.9c0.1,1.6,1.1,3.3,2.3,3.8
		c0.7,0.3,1.3,0.1,1.7-0.3c-0.2-0.6-0.5-1.3-0.8-1.9c-0.1,0.5-0.5,0.7-0.9,0.5c-0.5-0.2-1-1-1-1.7C436.6,33.5,436.9,33.1,437.3,33.2
		z"/>
	<path fill="#E98924" d="M446.5,39.5c-0.4-0.2-0.8-0.7-1-1.3c-0.3,0.4-0.5,0.8-0.7,1.2c0.4,0.8,1,1.5,1.7,1.8
		c1.2,0.5,2.2-0.4,2.1-2.1c0-0.9-0.4-1.9-0.9-2.6c-0.4,0.1-0.8,0.3-1.1,0.6c0.4,0.3,0.7,0.9,0.7,1.5C447.4,39.3,447,39.7,446.5,39.5
		z"/>
</g>
<polygon fill="#E98924" points="426.7,18.5 426.4,19 427.1,19.3 "/>
<polygon fill="#E98924" points="429,16.5 428.7,17 429.2,17.2 "/>
<polygon fill="#E98924" points="431.2,14.4 430.8,14.9 431.2,15 "/>
<path fill="#E98924" d="M437.9,22.1l-0.4,0.5c0,0,1,0.1,1.3,0C439.1,22.5,437.9,22.1,437.9,22.1z"/>
<polygon fill="#E98924" points="445.3,25 444.9,25.5 443.9,24.8 "/>
<polygon fill="#E98924" points="450.5,21.6 450.1,22 450.8,22.6 "/>
<polygon fill="#E98924" points="452.8,25.5 452.5,26 453,26.3 "/>
<polygon fill="#E98924" points="455.2,29.5 454.8,30 455.4,30.4 "/>
<polygon fill="#E98924" points="432,28.7 431.6,29.2 432.2,29.4 "/>
<polygon fill="#E98924" points="437.3,33.2 436.9,33.7 436.1,33 "/>
<polygon fill="#E98924" points="439.3,37.1 439,37.6 438.7,36.9 "/>
<polygon fill="#E98924" points="446.6,37 446.3,37.5 447.1,37.1 "/>
<polygon fill="#E98924" points="450.5,36.3 450.1,36.8 451,37.1 "/>
<polygon fill="#E98924" points="442.5,43.9 442.8,43.5 442.8,42.7 442.3,43.1 "/>
<g>
	<g>
		<g>
			<linearGradient id="SVGID_33_" gradientUnits="userSpaceOnUse" x1="373.7055" y1="100.6625" x2="419.2563" y2="100.6625">
				<stop  offset="0" style="stop-color:#FFD33F"/>
				<stop  offset="1" style="stop-color:#F37366"/>
			</linearGradient>
			<path fill="url(#SVGID_33_)" d="M406.7,125.6c1.3-2.4,2.1-5.5,2.1-9.2c0-13.4-9.4-29.7-21.1-36.5c-3-1.8-5.9-2.7-8.5-2.9
				c-2-0.1-3.8,0.2-5.4,0.9l9.1-4.9c3.8-2.5,9.3-2.3,15.3,1.2c11.6,6.7,21.1,23.1,21.1,36.5c0,6.3-2.1,10.8-5.5,13.1
				c-0.2,0.1-0.4,0.3-0.6,0.4c-0.2,0.1-10.5,5.7-10.5,5.7C404.3,129,405.6,127.5,406.7,125.6z"/>
			<path fill="#FFD33F" d="M373.7,78c1.6-0.7,3.4-1,5.4-0.9c2.6,0.2,5.5,1.1,8.5,2.9c11.6,6.7,21.1,23.1,21.1,36.5
				c0,3.7-0.8,6.8-2.1,9.2c-1,1.9-2.4,3.4-4.1,4.3c-3.8,2.2-9.1,1.9-15-1.5c-11.6-6.7-21.1-23.1-21.1-36.5
				C366.6,84.7,369.3,79.9,373.7,78z"/>
		</g>
	</g>
	<g>
		<path fill="#E98924" d="M376.9,95.7c0.2,0.1,0.3,0.1,0.5,0.2c0.1,0,0.2,0.1,0.2,0.1c0.2,0.1,0.4,0.2,0.6,0.3c0,0,0,0,0,0
			c0.5,0.3,0.9,0.6,1.4,0.9c0,0,0,0,0,0c1.8,1.3,3.5,3.1,5,5.3c0.8,1.2,1.5,2.6,2.1,4c0.5-0.9,1.2-1.7,1.9-2.4
			c1.3-1.1,3-1.6,4.7-1.5l0,0c0,0,0,0,0,0c0.2,0,0.3,0,0.5,0c0.3,0,0.6,0.1,0.9,0.2c0,0,0,0,0,0c0.2,0,0.4,0.1,0.6,0.2
			c0.1,0,0.2,0,0.2,0.1c0.1,0,0.3,0.1,0.5,0.2c1.6,0.6,2.8-0.6,2.7-2.8l-0.1-1.6l-0.1-1.6l-1.1-0.4l0.1,3.1c0,1.3-0.7,2.1-1.7,1.7
			c-0.2-0.1-0.4-0.1-0.5-0.2c-0.1,0-0.2-0.1-0.3-0.1c-0.5-0.1-0.9-0.2-1.4-0.3c-0.1,0-0.1,0-0.2,0c0,0-0.1,0-0.1,0
			c-0.4,0-0.8-0.1-1.1-0.1l0,0c-1.7,0-3.3,0.6-4.6,1.7c-0.4,0.4-0.8,0.8-1.2,1.2c-0.4-0.8-0.8-1.5-1.3-2.2c-1.4-2.2-3.1-4-4.8-5.4
			l0,0c-0.4-0.3-0.8-0.6-1.2-0.9c-0.1-0.1-0.2-0.1-0.3-0.2c-0.5-0.3-0.9-0.6-1.4-0.8c-0.1,0-0.2-0.1-0.2-0.1
			c-0.2-0.1-0.4-0.2-0.6-0.2c-1-0.4-1.8-1.7-1.8-3l-0.1-2.9l-1.1-0.4l0,1.5l0,1.5C374,92.9,375.3,95,376.9,95.7z"/>
		<path fill="#E98924" d="M396.3,108c-0.1,0-0.2-0.1-0.3-0.1c-0.2-0.1-0.4-0.1-0.7-0.2c0.3,1.2,0.4,2.4,0.5,3.6
			c0.2,6.7-3.6,10.4-8.6,8.2c-5-2.2-9.2-9.3-9.4-15.7c0-1.2,0.1-2.2,0.3-3.2c-0.2-0.1-0.4-0.2-0.7-0.3l0,0c-0.1-0.1-0.2-0.1-0.3-0.1
			c-0.1,0-0.2-0.1-0.3-0.1c-0.2,1-0.3,2.1-0.2,3.3c0.2,7.3,5,15.4,10.7,17.9c5.7,2.5,10-1.7,9.8-9.4c0-1.2-0.2-2.5-0.5-3.7
			C396.5,108.1,396.4,108.1,396.3,108z"/>
		<path fill="#E98924" d="M384.4,95.2c0.7,0,1.3,0.2,2,0.5c0.7,0.3,1.4,0.6,2.1,1.1c0.3-0.1,0.7-0.2,1-0.3l0.2,0l0,0
			c0.1,0,0.2,0,0.4-0.1c-1.2-1-2.4-1.9-3.8-2.4c-1.3-0.5-2.6-0.7-3.7-0.5c0.2,0.2,0.4,0.4,0.6,0.6C383.7,94.4,384,94.8,384.4,95.2z"
			/>
		<path fill="#E98924" d="M400,100.9c0.1,3-1.6,4.8-3.8,3.9c-0.2-0.1-0.3-0.1-0.4-0.2c-0.1,0-0.1,0-0.2-0.1
			c-0.4-0.1-0.9-0.2-1.3-0.3c0,0,0,0,0,0c-1.8-0.2-3.4,0.2-4.7,1.3c-1.2,1-2.1,2.5-2.6,4.3c-0.6-2.3-1.6-4.6-2.9-6.6
			c-1.4-2.2-3.1-4-4.9-5.1c-0.4-0.3-0.9-0.6-1.4-0.8c-0.1,0-0.1-0.1-0.2-0.1c-0.1-0.1-0.3-0.1-0.4-0.2c-2.2-0.9-4.1-3.9-4.2-6.8
			l-1.2-0.5c0.1,3.7,2.6,7.7,5.5,8.9c0,0,0.1,0,0.1,0c0.1,0,0.2,0.1,0.3,0.1c0.3,0.2,0.7,0.3,1,0.5c1.7,1,3.4,2.7,4.7,4.8
			c2,3,3.1,6.7,3.3,10.1l0,0l0,0l1.3,0.5c0,0,0,0,0-0.1l0,0c-0.1-3.4,0.9-6.1,2.7-7.6c1.1-1,2.6-1.4,4.1-1.2c0.1,0,0.3,0,0.4,0.1
			c0.3,0.1,0.7,0.2,1,0.3c0.1,0,0.2,0.1,0.3,0.1c0,0,0.1,0,0.1,0c2.9,1.2,5.2-1.2,5-5.2L400,100.9z"/>
		<path fill="#E98924" d="M376.8,92.7c0.2,0.1,0.4,0.2,0.6,0.3c0.1,0,0.2,0.1,0.3,0.1c0.6,0.3,1.2,0.6,1.8,1
			c0.2,0.1,0.4,0.2,0.6,0.4c0.5,0.4,1,0.8,1.5,1.2c1.6,1.4,3.2,3.2,4.5,5.2c0.2,0.3,0.3,0.5,0.5,0.8c0.2-0.1,0.3-0.3,0.5-0.4
			c1.2-1,2.7-1.6,4.3-1.8l0,0c0.5-0.1,1-0.1,1.5,0c0.2,0,0.3,0,0.5,0c0,0,0.1,0,0.1,0c0.6,0.1,1.1,0.2,1.7,0.4
			c0.1,0,0.2,0.1,0.3,0.1c0.2,0.1,0.4,0.1,0.6,0.2c0.3,0.1,0.6-0.1,0.6-0.6l-0.2-4.6l-0.1-1.5l-1.1-0.4l0.2,5.5c0,0-0.1,0-0.1,0
			c-0.1,0-0.2-0.1-0.3-0.1c-0.6-0.2-1.3-0.3-1.9-0.4c0,0-0.1,0-0.1,0c-0.5-0.1-1-0.1-1.5,0c-0.5,0-1,0.1-1.5,0.2l0,0
			c-1.3,0.3-2.4,0.8-3.5,1.6c-1.1-1.7-2.4-3.1-3.7-4.4c-0.5-0.5-1.1-1-1.6-1.4c-0.5-0.4-1-0.8-1.6-1.1c-0.7-0.4-1.3-0.8-2-1.1
			c-0.1,0-0.2-0.1-0.3-0.1c0,0-0.1,0-0.1-0.1l-0.2-5.2l-1.1-0.4l0,1.5l0.1,4.4C376.2,92.1,376.5,92.6,376.8,92.7z"/>
		<path fill="#E98924" d="M382.1,104.6c-0.4-0.5-0.8-1-1.2-1.5c-0.5,0.3-0.8,1-0.7,1.9c0.1,1.6,1.1,3.3,2.3,3.8
			c0.7,0.3,1.3,0.1,1.7-0.3c-0.2-0.6-0.5-1.3-0.8-1.9c-0.1,0.5-0.5,0.7-0.9,0.5c-0.5-0.2-1-1-1-1.7
			C381.4,104.9,381.7,104.6,382.1,104.6z"/>
		<path fill="#E98924" d="M391.3,110.9c-0.4-0.2-0.8-0.7-1-1.3c-0.3,0.4-0.5,0.8-0.7,1.2c0.4,0.8,1,1.5,1.7,1.8
			c1.2,0.5,2.2-0.4,2.1-2.1c0-0.9-0.4-1.9-0.9-2.6c-0.4,0.1-0.8,0.3-1.1,0.6c0.4,0.3,0.7,0.9,0.7,1.5
			C392.2,110.7,391.8,111.1,391.3,110.9z"/>
	</g>
	<polygon fill="#E98924" points="371.6,89.9 371.2,90.4 371.9,90.8 	"/>
	<polygon fill="#E98924" points="373.8,87.9 373.5,88.4 374,88.7 	"/>
	<polygon fill="#E98924" points="376,85.8 375.7,86.3 376.1,86.5 	"/>
	<path fill="#E98924" d="M382.7,93.5l-0.4,0.5c0,0,1,0.1,1.3,0C383.9,94,382.7,93.5,382.7,93.5z"/>
	<polygon fill="#E98924" points="390.1,96.4 389.7,96.9 388.7,96.2 	"/>
	<polygon fill="#E98924" points="395.3,93 394.9,93.5 395.6,94 	"/>
	<polygon fill="#E98924" points="397.6,96.9 397.3,97.4 397.9,97.8 	"/>
	<polygon fill="#E98924" points="400,100.9 399.7,101.4 400.2,101.8 	"/>
	<polygon fill="#E98924" points="376.8,100.1 376.4,100.6 377.1,100.9 	"/>
	<polygon fill="#E98924" points="382.1,104.6 381.7,105.1 380.9,104.4 	"/>
	<polygon fill="#E98924" points="384.1,108.5 383.8,109 383.5,108.3 	"/>
	<polygon fill="#E98924" points="391.4,108.4 391.1,108.9 391.9,108.5 	"/>
	<polygon fill="#E98924" points="395.3,107.7 394.9,108.2 395.8,108.5 	"/>
	<polygon fill="#E98924" points="387.3,115.3 387.7,114.9 387.6,114.1 387.1,114.5 	"/>
	<g>
		<path fill="#F99E1E" d="M376.6,96.2c0.2,0.1,0.3,0.1,0.5,0.2c0.1,0,0.2,0.1,0.2,0.1c0.2,0.1,0.4,0.2,0.6,0.3c0,0,0,0,0,0
			c0.5,0.3,0.9,0.6,1.4,0.9c0,0,0,0,0,0c1.8,1.3,3.5,3.1,5,5.3c0.8,1.2,1.5,2.6,2.1,4c0.5-0.9,1.2-1.7,1.9-2.4
			c1.3-1.1,3-1.6,4.7-1.5l0,0c0,0,0,0,0,0c0.2,0,0.3,0,0.5,0c0.3,0,0.6,0.1,0.9,0.2c0,0,0,0,0,0c0.2,0,0.4,0.1,0.6,0.2
			c0.1,0,0.2,0,0.2,0.1c0.1,0,0.3,0.1,0.5,0.2c1.6,0.6,2.8-0.6,2.7-2.8l-0.1-1.6l-0.1-1.6l-1.1-0.4l0.1,3.1c0,1.3-0.7,2.1-1.7,1.7
			c-0.2-0.1-0.4-0.1-0.5-0.2c-0.1,0-0.2-0.1-0.3-0.1c-0.5-0.1-0.9-0.2-1.4-0.3c-0.1,0-0.1,0-0.2,0c0,0-0.1,0-0.1,0
			c-0.4,0-0.8-0.1-1.1-0.1l0,0c-1.7,0-3.3,0.6-4.6,1.7c-0.4,0.4-0.8,0.8-1.2,1.2c-0.4-0.8-0.8-1.5-1.3-2.2c-1.4-2.2-3.1-4-4.8-5.4
			l0,0c-0.4-0.3-0.8-0.6-1.2-0.9c-0.1-0.1-0.2-0.1-0.3-0.2c-0.5-0.3-0.9-0.6-1.4-0.8c-0.1,0-0.2-0.1-0.2-0.1
			c-0.2-0.1-0.4-0.2-0.6-0.2c-1-0.4-1.8-1.7-1.8-3l-0.1-2.9l-1.1-0.4l0,1.5l0,1.5C373.6,93.3,375,95.5,376.6,96.2z"/>
		<path fill="#F99E1E" d="M395.9,108.5c-0.1,0-0.2-0.1-0.3-0.1c-0.2-0.1-0.4-0.1-0.7-0.2c0.3,1.2,0.4,2.4,0.5,3.6
			c0.2,6.7-3.6,10.4-8.6,8.2c-5-2.2-9.2-9.3-9.4-15.7c0-1.2,0.1-2.2,0.3-3.2c-0.2-0.1-0.4-0.2-0.7-0.3l0,0c-0.1-0.1-0.2-0.1-0.3-0.1
			c-0.1,0-0.2-0.1-0.3-0.1c-0.2,1-0.3,2.1-0.2,3.3c0.2,7.3,5,15.4,10.7,17.9c5.7,2.5,10-1.7,9.8-9.4c0-1.2-0.2-2.5-0.5-3.7
			C396.1,108.6,396,108.6,395.9,108.5z"/>
		<path fill="#F99E1E" d="M384,95.7c0.7,0,1.3,0.2,2,0.5c0.7,0.3,1.4,0.6,2.1,1.1c0.3-0.1,0.7-0.2,1-0.3l0.2,0l0,0
			c0.1,0,0.2,0,0.4-0.1c-1.2-1-2.4-1.9-3.8-2.4c-1.3-0.5-2.6-0.7-3.7-0.5c0.2,0.2,0.4,0.4,0.6,0.6C383.3,94.9,383.7,95.3,384,95.7z"
			/>
		<path fill="#F99E1E" d="M399.7,101.4c0.1,3-1.6,4.8-3.8,3.9c-0.2-0.1-0.3-0.1-0.4-0.2c-0.1,0-0.1,0-0.2-0.1
			c-0.4-0.1-0.9-0.2-1.3-0.3c0,0,0,0,0,0c-1.8-0.2-3.4,0.2-4.7,1.3c-1.2,1-2.1,2.5-2.6,4.3c-0.6-2.3-1.6-4.6-2.9-6.6
			c-1.4-2.2-3.1-4-4.9-5.1c-0.4-0.3-0.9-0.6-1.4-0.8c-0.1,0-0.1-0.1-0.2-0.1c-0.1-0.1-0.3-0.1-0.4-0.2c-2.2-0.9-4.1-3.9-4.2-6.8
			l-1.2-0.5c0.1,3.7,2.6,7.7,5.5,8.9c0,0,0.1,0,0.1,0c0.1,0,0.2,0.1,0.3,0.1c0.3,0.2,0.7,0.3,1,0.5c1.7,1,3.4,2.7,4.7,4.8
			c2,3,3.1,6.7,3.3,10.1l0,0l0,0l1.3,0.5c0,0,0,0,0-0.1l0,0c-0.1-3.4,0.9-6.1,2.7-7.6c1.1-1,2.6-1.4,4.1-1.2c0.1,0,0.3,0,0.4,0.1
			c0.3,0.1,0.7,0.2,1,0.3c0.1,0,0.2,0.1,0.3,0.1c0,0,0.1,0,0.1,0c2.9,1.2,5.2-1.2,5-5.2L399.7,101.4z"/>
		<path fill="#F99E1E" d="M376.5,93.2c0.2,0.1,0.4,0.2,0.6,0.3c0.1,0,0.2,0.1,0.3,0.1c0.6,0.3,1.2,0.6,1.8,1
			c0.2,0.1,0.4,0.2,0.6,0.4c0.5,0.4,1,0.8,1.5,1.2c1.6,1.4,3.2,3.2,4.5,5.2c0.2,0.3,0.3,0.5,0.5,0.8c0.2-0.1,0.3-0.3,0.5-0.4
			c1.2-1,2.7-1.6,4.3-1.8l0,0c0.5-0.1,1-0.1,1.5,0c0.2,0,0.3,0,0.5,0c0,0,0.1,0,0.1,0c0.6,0.1,1.1,0.2,1.7,0.4
			c0.1,0,0.2,0.1,0.3,0.1c0.2,0.1,0.4,0.1,0.6,0.2c0.3,0.1,0.6-0.1,0.6-0.6l-0.2-4.6l-0.1-1.5l-1.1-0.4l0.2,5.5c0,0-0.1,0-0.1,0
			c-0.1,0-0.2-0.1-0.3-0.1c-0.6-0.2-1.3-0.3-1.9-0.4c0,0-0.1,0-0.1,0c-0.5-0.1-1-0.1-1.5,0c-0.5,0-1,0.1-1.5,0.2l0,0
			c-1.3,0.3-2.4,0.8-3.5,1.6c-1.1-1.7-2.4-3.1-3.7-4.4c-0.5-0.5-1.1-1-1.6-1.4c-0.5-0.4-1-0.8-1.6-1.1c-0.7-0.4-1.3-0.8-2-1.1
			c-0.1,0-0.2-0.1-0.3-0.1c0,0-0.1,0-0.1-0.1l-0.2-5.2l-1.1-0.4l0,1.5l0.1,4.4C375.9,92.6,376.1,93.1,376.5,93.2z"/>
		<path fill="#F99E1E" d="M381.7,105.1c-0.4-0.5-0.8-1-1.2-1.5c-0.5,0.3-0.8,1-0.7,1.9c0.1,1.6,1.1,3.3,2.3,3.8
			c0.7,0.3,1.3,0.1,1.7-0.3c-0.2-0.6-0.5-1.3-0.8-1.9c-0.1,0.5-0.5,0.7-0.9,0.5c-0.5-0.2-1-1-1-1.7C381,105.4,381.3,105,381.7,105.1
			z"/>
		<path fill="#F99E1E" d="M390.9,111.4c-0.4-0.2-0.8-0.7-1-1.3c-0.3,0.4-0.5,0.8-0.7,1.2c0.4,0.8,1,1.5,1.7,1.8
			c1.2,0.5,2.2-0.4,2.1-2.1c0-0.9-0.4-1.9-0.9-2.6c-0.4,0.1-0.8,0.3-1.1,0.6c0.4,0.3,0.7,0.9,0.7,1.5
			C391.8,111.2,391.4,111.6,390.9,111.4z"/>
	</g>
</g>
<g>
	<path opacity="0.43" fill="#30439B" d="M510.5,161.4l-40.9-23.8c-4-2.4-9-2.4-13.1,0l-39.1,34.2l32.8,23.5H470l40.6-25.1
		C513.9,168.2,513.9,163.4,510.5,161.4z"/>
	<g>
		<g>
			
				<linearGradient id="SVGID_34_" gradientUnits="userSpaceOnUse" x1="408.185" y1="125.3466" x2="493.847" y2="125.3466" gradientTransform="matrix(1 0 0 1 -2.5162 0)">
				<stop  offset="0.2919" style="stop-color:#EAE9F5"/>
				<stop  offset="0.3893" style="stop-color:#E2E2F1"/>
				<stop  offset="0.5285" style="stop-color:#CFCEE8"/>
				<stop  offset="0.627" style="stop-color:#BFBDDF"/>
			</linearGradient>
			<path fill="url(#SVGID_34_)" d="M491.3,54.8h-85.7V171c0,1,0.5,2.1,1.5,2.7l36,20.8c3.3,1.9,7.3,1.9,10.6,0l35.9-20.8
				c1-0.6,1.5-1.7,1.5-2.7C491.3,171,491.3,54.8,491.3,54.8z"/>
			<path fill="#FFFFFF" d="M443.2,78.4l-36-20.8c-2-1.2-2-4.1,0-5.3l36.2-20.9c3-1.7,6.7-1.7,9.7,0l36.6,21.2c2,1.1,2,4,0,5.1
				l-35.9,20.8C450.5,80.3,446.5,80.3,443.2,78.4z"/>
		</g>
	</g>
</g>
<g>
	<path opacity="0.43" fill="#30439B" d="M552,191.5l-37.8-21.7c-3.7-2.1-8.3-2.1-12.1,0l-36.9,21.1v13.3l31,18.2h18.3l37.5-22.8
		C555.1,197.7,555.1,193.3,552,191.5z"/>
	<g>
		
			<linearGradient id="SVGID_35_" gradientUnits="userSpaceOnUse" x1="963.0101" y1="179.3571" x2="1044.3073" y2="179.3571" gradientTransform="matrix(1 0 0 1 -515.401 0)">
			<stop  offset="0.2919" style="stop-color:#EAE9F5"/>
			<stop  offset="0.3893" style="stop-color:#E2E2F1"/>
			<stop  offset="0.5285" style="stop-color:#CFCEE8"/>
			<stop  offset="0.627" style="stop-color:#BFBDDF"/>
		</linearGradient>
		<path fill="url(#SVGID_35_)" d="M457,136.5v62.9c0,0.9,0.5,1.9,1.4,2.4l33,19.1c3,1.7,6.7,1.7,9.7,0l32.9-19
			c1-0.6,1.4-1.5,1.3-2.5c0.2,0,0.2-62.7,0.2-62.7L457,136.5z"/>
		<path fill="#FFFFFF" d="M491.5,157.9l-33-19.1c-1.9-1.1-1.9-3.8,0-4.9l33.2-19.2c2.7-1.6,6.1-1.6,8.9,0l33.6,19.4
			c1.8,1,1.8,3.7,0,4.7l-32.9,19C498.2,159.6,494.5,159.6,491.5,157.9z"/>
	</g>
</g>
<path fill="#212F60" d="M430.3,82.2c0-2.2-1.3-4.7-3-5.7c-1.6-0.9-3,0.1-3,2.2v22.9l5.9,3.4V82.2z"/>
<linearGradient id="SVGID_36_" gradientUnits="userSpaceOnUse" x1="427.3294" y1="167.1447" x2="427.3294" y2="116.2285">
	<stop  offset="0" style="stop-color:#FFD33F"/>
	<stop  offset="1" style="stop-color:#F37366"/>
</linearGradient>
<path fill="url(#SVGID_36_)" d="M424.4,101.7v60.9c0,2.2,1.3,4.7,3,5.7c1.6,0.9,3-0.1,3-2.2V105L424.4,101.7z"/>
<path fill="#212F60" d="M479.3,160.2c0-2.2-1.3-4.8-3-5.7c-1.6-0.9-3,0.1-3,2.2c0,0.2,0,22.9,0,22.9l5.9,3.2V160.2z"/>
<linearGradient id="SVGID_37_" gradientUnits="userSpaceOnUse" x1="476.3608" y1="204.0166" x2="476.3608" y2="153.1019">
	<stop  offset="0" style="stop-color:#FFD33F"/>
	<stop  offset="1" style="stop-color:#F37366"/>
</linearGradient>
<path fill="url(#SVGID_37_)" d="M473.4,179.6v15.3c0,2.2,1.3,4.8,3,5.7c1.6,0.9,3-0.1,3-2.2c0-0.2,0-15.5,0-15.5L473.4,179.6z"/>
<g>
	<path fill="#F99E1E" d="M431.8,24.8c0.2,0.1,0.3,0.1,0.5,0.2c0.1,0,0.2,0.1,0.2,0.1c0.2,0.1,0.4,0.2,0.6,0.3c0,0,0,0,0,0
		c0.5,0.3,0.9,0.6,1.4,0.9c0,0,0,0,0,0c1.8,1.3,3.5,3.1,5,5.3c0.8,1.2,1.5,2.6,2.1,4c0.5-0.9,1.2-1.7,1.9-2.4c1.3-1.1,3-1.6,4.7-1.5
		l0,0c0,0,0,0,0,0c0.2,0,0.3,0,0.5,0c0.3,0,0.6,0.1,0.9,0.2c0,0,0,0,0,0c0.2,0,0.4,0.1,0.6,0.2c0.1,0,0.2,0,0.2,0.1
		c0.1,0,0.3,0.1,0.5,0.2c1.6,0.6,2.8-0.6,2.7-2.8l-0.1-1.6l-0.1-1.6l-1.1-0.4l0.1,3.1c0,1.3-0.7,2.1-1.7,1.7
		c-0.2-0.1-0.4-0.1-0.5-0.2c-0.1,0-0.2-0.1-0.3-0.1c-0.5-0.1-0.9-0.2-1.4-0.3c-0.1,0-0.1,0-0.2,0c0,0-0.1,0-0.1,0
		c-0.4,0-0.8-0.1-1.1-0.1l0,0c-1.7,0-3.3,0.6-4.6,1.7c-0.4,0.4-0.8,0.8-1.2,1.2c-0.4-0.8-0.8-1.5-1.3-2.2c-1.4-2.2-3.1-4-4.8-5.4
		l0,0c-0.4-0.3-0.8-0.6-1.2-0.9c-0.1-0.1-0.2-0.1-0.3-0.2c-0.5-0.3-0.9-0.6-1.4-0.8c-0.1,0-0.2-0.1-0.2-0.1
		c-0.2-0.1-0.4-0.2-0.6-0.2c-1-0.4-1.8-1.7-1.8-3l-0.1-2.9l-1.1-0.4l0,1.5l0,1.5C428.8,21.9,430.2,24.1,431.8,24.8z"/>
	<path fill="#F99E1E" d="M451.1,37.1c-0.1,0-0.2-0.1-0.3-0.1c-0.2-0.1-0.4-0.1-0.7-0.2c0.3,1.2,0.4,2.4,0.5,3.6
		c0.2,6.7-3.6,10.4-8.6,8.2c-5-2.2-9.2-9.3-9.4-15.7c0-1.2,0.1-2.2,0.3-3.2c-0.2-0.1-0.4-0.2-0.7-0.3l0,0c-0.1-0.1-0.2-0.1-0.3-0.1
		c-0.1,0-0.2-0.1-0.3-0.1c-0.2,1-0.3,2.1-0.2,3.3c0.2,7.3,5,15.4,10.7,17.9c5.7,2.5,10-1.7,9.8-9.4c0-1.2-0.2-2.5-0.5-3.7
		C451.3,37.2,451.2,37.2,451.1,37.1z"/>
	<path fill="#F99E1E" d="M439.2,24.3c0.7,0,1.3,0.2,2,0.5c0.7,0.3,1.4,0.6,2.1,1.1c0.3-0.1,0.7-0.2,1-0.3l0.2,0l0,0
		c0.1,0,0.2,0,0.4-0.1c-1.2-1-2.4-1.9-3.8-2.4c-1.3-0.5-2.6-0.7-3.7-0.5c0.2,0.2,0.4,0.4,0.6,0.6C438.5,23.5,438.8,23.9,439.2,24.3z
		"/>
	<path fill="#F99E1E" d="M454.8,30c0.1,3-1.6,4.8-3.8,3.9c-0.2-0.1-0.3-0.1-0.4-0.2c-0.1,0-0.1,0-0.2-0.1c-0.4-0.1-0.9-0.2-1.3-0.3
		c0,0,0,0,0,0c-1.8-0.2-3.4,0.2-4.7,1.3c-1.2,1-2.1,2.5-2.6,4.3c-0.6-2.3-1.6-4.6-2.9-6.6c-1.4-2.2-3.1-4-4.9-5.1
		c-0.4-0.3-0.9-0.6-1.4-0.8c-0.1,0-0.1-0.1-0.2-0.1c-0.1-0.1-0.3-0.1-0.4-0.2c-2.2-0.9-4.1-3.9-4.2-6.8l-1.2-0.5
		c0.1,3.7,2.6,7.7,5.5,8.9c0,0,0.1,0,0.1,0c0.1,0,0.2,0.1,0.3,0.1c0.3,0.2,0.7,0.3,1,0.5c1.7,1,3.4,2.7,4.7,4.8
		c2,3,3.1,6.7,3.3,10.1l0,0l0,0l1.3,0.5c0,0,0,0,0-0.1l0,0c-0.1-3.4,0.9-6.1,2.7-7.6c1.1-1,2.6-1.4,4.1-1.2c0.1,0,0.3,0,0.4,0.1
		c0.3,0.1,0.7,0.2,1,0.3c0.1,0,0.2,0.1,0.3,0.1c0,0,0.1,0,0.1,0c2.9,1.2,5.2-1.2,5-5.2L454.8,30z"/>
	<path fill="#F99E1E" d="M431.7,21.8c0.2,0.1,0.4,0.2,0.6,0.3c0.1,0,0.2,0.1,0.3,0.1c0.6,0.3,1.2,0.6,1.8,1c0.2,0.1,0.4,0.2,0.6,0.4
		c0.5,0.4,1,0.8,1.5,1.2c1.6,1.4,3.2,3.2,4.5,5.2c0.2,0.3,0.3,0.5,0.5,0.8c0.2-0.1,0.3-0.3,0.5-0.4c1.2-1,2.7-1.6,4.3-1.8l0,0
		c0.5-0.1,1-0.1,1.5,0c0.2,0,0.3,0,0.5,0c0,0,0.1,0,0.1,0c0.6,0.1,1.1,0.2,1.7,0.4c0.1,0,0.2,0.1,0.3,0.1c0.2,0.1,0.4,0.1,0.6,0.2
		c0.3,0.1,0.6-0.1,0.6-0.6l-0.2-4.6l-0.1-1.5l-1.1-0.4l0.2,5.5c0,0-0.1,0-0.1,0c-0.1,0-0.2-0.1-0.3-0.1c-0.6-0.2-1.3-0.3-1.9-0.4
		c0,0-0.1,0-0.1,0c-0.5-0.1-1-0.1-1.5,0c-0.5,0-1,0.1-1.5,0.2l0,0c-1.3,0.3-2.4,0.8-3.5,1.6c-1.1-1.7-2.4-3.1-3.7-4.4
		c-0.5-0.5-1.1-1-1.6-1.4c-0.5-0.4-1-0.8-1.6-1.1c-0.7-0.4-1.3-0.8-2-1.1c-0.1,0-0.2-0.1-0.3-0.1c0,0-0.1,0-0.1-0.1l-0.2-5.2
		l-1.1-0.4l0,1.5l0.1,4.4C431,21.2,431.3,21.7,431.7,21.8z"/>
	<path fill="#F99E1E" d="M436.9,33.7c-0.4-0.5-0.8-1-1.2-1.5c-0.5,0.3-0.8,1-0.7,1.9c0.1,1.6,1.1,3.3,2.3,3.8
		c0.7,0.3,1.3,0.1,1.7-0.3c-0.2-0.6-0.5-1.3-0.8-1.9c-0.1,0.5-0.5,0.7-0.9,0.5c-0.5-0.2-1-1-1-1.7C436.2,34,436.5,33.6,436.9,33.7z"
		/>
	<path fill="#F99E1E" d="M446.1,40c-0.4-0.2-0.8-0.7-1-1.3c-0.3,0.4-0.5,0.8-0.7,1.2c0.4,0.8,1,1.5,1.7,1.8c1.2,0.5,2.2-0.4,2.1-2.1
		c0-0.9-0.4-1.9-0.9-2.6c-0.4,0.1-0.8,0.3-1.1,0.6c0.4,0.3,0.7,0.9,0.7,1.5C447,39.8,446.6,40.2,446.1,40z"/>
</g>
<g>
	<g>
		<g>
			<linearGradient id="SVGID_38_" gradientUnits="userSpaceOnUse" x1="478.2275" y1="114.8874" x2="523.7783" y2="114.8874">
				<stop  offset="0" style="stop-color:#FFD33F"/>
				<stop  offset="1" style="stop-color:#F37366"/>
			</linearGradient>
			<path fill="url(#SVGID_38_)" d="M511.2,139.9c1.3-2.4,2.1-5.5,2.1-9.2c0-13.4-9.4-29.7-21.1-36.5c-3-1.8-5.9-2.7-8.5-2.9
				c-2-0.1-3.8,0.2-5.4,0.9l9.1-4.9c3.8-2.5,9.3-2.3,15.3,1.2c11.6,6.7,21.1,23.1,21.1,36.5c0,6.3-2.1,10.8-5.5,13.1
				c-0.2,0.1-0.4,0.3-0.6,0.4c-0.2,0.1-10.5,5.7-10.5,5.7C508.8,143.2,510.2,141.8,511.2,139.9z"/>
			<path fill="#FFD33F" d="M478.2,92.2c1.6-0.7,3.4-1,5.4-0.9c2.6,0.2,5.5,1.1,8.5,2.9c11.6,6.7,21.1,23.1,21.1,36.5
				c0,3.7-0.8,6.8-2.1,9.2c-1,1.9-2.4,3.4-4.1,4.3c-3.8,2.2-9.1,1.9-15-1.5c-11.6-6.7-21.1-23.1-21.1-36.5
				C471.1,99,473.9,94.1,478.2,92.2z"/>
		</g>
	</g>
	<g>
		<path fill="#E98924" d="M481.5,109.9c0.2,0.1,0.3,0.1,0.5,0.2c0.1,0,0.2,0.1,0.2,0.1c0.2,0.1,0.4,0.2,0.6,0.3c0,0,0,0,0,0
			c0.5,0.3,0.9,0.6,1.4,0.9c0,0,0,0,0,0c1.8,1.3,3.5,3.1,5,5.3c0.8,1.2,1.5,2.6,2.1,4c0.5-0.9,1.2-1.7,1.9-2.4
			c1.3-1.1,3-1.6,4.7-1.5l0,0c0,0,0,0,0,0c0.2,0,0.3,0,0.5,0c0.3,0,0.6,0.1,0.9,0.2c0,0,0,0,0,0c0.2,0,0.4,0.1,0.6,0.2
			c0.1,0,0.2,0,0.2,0.1c0.1,0,0.3,0.1,0.5,0.2c1.6,0.6,2.8-0.6,2.7-2.8l-0.1-1.6l-0.1-1.6l-1.1-0.4l0.1,3.1c0,1.3-0.7,2.1-1.7,1.7
			c-0.2-0.1-0.4-0.1-0.5-0.2c-0.1,0-0.2-0.1-0.3-0.1c-0.5-0.1-0.9-0.2-1.4-0.3c-0.1,0-0.1,0-0.2,0c0,0-0.1,0-0.1,0
			c-0.4,0-0.8-0.1-1.1-0.1l0,0c-1.7,0-3.3,0.6-4.6,1.7c-0.4,0.4-0.8,0.8-1.2,1.2c-0.4-0.8-0.8-1.5-1.3-2.2c-1.4-2.2-3.1-4-4.8-5.4
			l0,0c-0.4-0.3-0.8-0.6-1.2-0.9c-0.1-0.1-0.2-0.1-0.3-0.2c-0.5-0.3-0.9-0.6-1.4-0.8c-0.1,0-0.2-0.1-0.2-0.1
			c-0.2-0.1-0.4-0.2-0.6-0.2c-1-0.4-1.8-1.7-1.8-3l-0.1-2.9l-1.1-0.4l0,1.5l0,1.5C478.5,107.1,479.9,109.3,481.5,109.9z"/>
		<path fill="#E98924" d="M500.8,122.3c-0.1,0-0.2-0.1-0.3-0.1c-0.2-0.1-0.4-0.1-0.7-0.2c0.3,1.2,0.4,2.4,0.5,3.6
			c0.2,6.7-3.6,10.4-8.6,8.2c-5-2.2-9.2-9.3-9.4-15.7c0-1.2,0.1-2.2,0.3-3.2c-0.2-0.1-0.4-0.2-0.7-0.3l0,0c-0.1-0.1-0.2-0.1-0.3-0.1
			c-0.1,0-0.2-0.1-0.3-0.1c-0.2,1-0.3,2.1-0.2,3.3c0.2,7.3,5,15.4,10.7,17.9c5.7,2.5,10-1.7,9.8-9.4c0-1.2-0.2-2.5-0.5-3.7
			C501,122.3,500.9,122.3,500.8,122.3z"/>
		<path fill="#E98924" d="M488.9,109.4c0.7,0,1.3,0.2,2,0.5c0.7,0.3,1.4,0.6,2.1,1.1c0.3-0.1,0.7-0.2,1-0.3l0.2,0l0,0
			c0.1,0,0.2,0,0.4-0.1c-1.2-1-2.4-1.9-3.8-2.4c-1.3-0.5-2.6-0.7-3.7-0.5c0.2,0.2,0.4,0.4,0.6,0.6
			C488.2,108.7,488.5,109,488.9,109.4z"/>
		<path fill="#E98924" d="M504.5,115.1c0.1,3-1.6,4.8-3.8,3.9c-0.2-0.1-0.3-0.1-0.4-0.2c-0.1,0-0.1,0-0.2-0.1
			c-0.4-0.1-0.9-0.2-1.3-0.3c0,0,0,0,0,0c-1.8-0.2-3.4,0.2-4.7,1.3c-1.2,1-2.1,2.5-2.6,4.3c-0.6-2.3-1.6-4.6-2.9-6.6
			c-1.4-2.2-3.1-4-4.9-5.1c-0.4-0.3-0.9-0.6-1.4-0.8c-0.1,0-0.1-0.1-0.2-0.1c-0.1-0.1-0.3-0.1-0.4-0.2c-2.2-0.9-4.1-3.9-4.2-6.8
			l-1.2-0.5c0.1,3.7,2.6,7.7,5.5,8.9c0,0,0.1,0,0.1,0c0.1,0,0.2,0.1,0.3,0.1c0.3,0.2,0.7,0.3,1,0.5c1.7,1,3.4,2.7,4.7,4.8
			c2,3,3.1,6.7,3.3,10.1l0,0l0,0l1.3,0.5c0,0,0,0,0-0.1l0,0c-0.1-3.4,0.9-6.1,2.7-7.6c1.1-1,2.6-1.4,4.1-1.2c0.1,0,0.3,0,0.4,0.1
			c0.3,0.1,0.7,0.2,1,0.3c0.1,0,0.2,0.1,0.3,0.1c0,0,0.1,0,0.1,0c2.9,1.2,5.2-1.2,5-5.2L504.5,115.1z"/>
		<path fill="#E98924" d="M481.4,107c0.2,0.1,0.4,0.2,0.6,0.3c0.1,0,0.2,0.1,0.3,0.1c0.6,0.3,1.2,0.6,1.8,1c0.2,0.1,0.4,0.2,0.6,0.4
			c0.5,0.4,1,0.8,1.5,1.2c1.6,1.4,3.2,3.2,4.5,5.2c0.2,0.3,0.3,0.5,0.5,0.8c0.2-0.1,0.3-0.3,0.5-0.4c1.2-1,2.7-1.6,4.3-1.8l0,0
			c0.5-0.1,1-0.1,1.5,0c0.2,0,0.3,0,0.5,0c0,0,0.1,0,0.1,0c0.6,0.1,1.1,0.2,1.7,0.4c0.1,0,0.2,0.1,0.3,0.1c0.2,0.1,0.4,0.1,0.6,0.2
			c0.3,0.1,0.6-0.1,0.6-0.6l-0.2-4.6l-0.1-1.5l-1.1-0.4l0.2,5.5c0,0-0.1,0-0.1,0c-0.1,0-0.2-0.1-0.3-0.1c-0.6-0.2-1.3-0.3-1.9-0.4
			c0,0-0.1,0-0.1,0c-0.5-0.1-1-0.1-1.5,0c-0.5,0-1,0.1-1.5,0.2l0,0c-1.3,0.3-2.4,0.8-3.5,1.6c-1.1-1.7-2.4-3.1-3.7-4.4
			c-0.5-0.5-1.1-1-1.6-1.4c-0.5-0.4-1-0.8-1.6-1.1c-0.7-0.4-1.3-0.8-2-1.1c-0.1,0-0.2-0.1-0.3-0.1c0,0-0.1,0-0.1-0.1l-0.2-5.2
			l-1.1-0.4l0,1.5l0.1,4.4C480.7,106.4,481,106.8,481.4,107z"/>
		<path fill="#E98924" d="M486.6,118.8c-0.4-0.5-0.8-1-1.2-1.5c-0.5,0.3-0.8,1-0.7,1.9c0.1,1.6,1.1,3.3,2.3,3.8
			c0.7,0.3,1.3,0.1,1.7-0.3c-0.2-0.6-0.5-1.3-0.8-1.9c-0.1,0.5-0.5,0.7-0.9,0.5c-0.5-0.2-1-1-1-1.7
			C485.9,119.1,486.2,118.8,486.6,118.8z"/>
		<path fill="#E98924" d="M495.8,125.1c-0.4-0.2-0.8-0.7-1-1.3c-0.3,0.4-0.5,0.8-0.7,1.2c0.4,0.8,1,1.5,1.7,1.8
			c1.2,0.5,2.2-0.4,2.1-2.1c0-0.9-0.4-1.9-0.9-2.6c-0.4,0.1-0.8,0.3-1.1,0.6c0.4,0.3,0.7,0.9,0.7,1.5
			C496.7,124.9,496.3,125.3,495.8,125.1z"/>
	</g>
	<polygon fill="#E98924" points="476.1,104.1 475.7,104.6 476.5,105 	"/>
	<polygon fill="#E98924" points="478.4,102.1 478,102.6 478.5,102.9 	"/>
	<polygon fill="#E98924" points="480.5,100 480.2,100.5 480.6,100.7 	"/>
	<path fill="#E98924" d="M487.2,107.7l-0.4,0.5c0,0,1,0.1,1.3,0S487.2,107.7,487.2,107.7z"/>
	<polygon fill="#E98924" points="494.6,110.6 494.3,111.1 493.2,110.4 	"/>
	<polygon fill="#E98924" points="499.8,107.2 499.4,107.7 500.1,108.3 	"/>
	<polygon fill="#E98924" points="502.2,111.1 501.8,111.6 502.4,112 	"/>
	<polygon fill="#E98924" points="504.5,115.1 504.2,115.6 504.7,116 	"/>
	<polygon fill="#E98924" points="481.3,114.3 481,114.8 481.6,115.1 	"/>
	<polygon fill="#E98924" points="486.6,118.8 486.3,119.3 485.4,118.6 	"/>
	<polygon fill="#E98924" points="488.7,122.7 488.3,123.2 488,122.6 	"/>
	<polygon fill="#E98924" points="496,122.7 495.6,123.2 496.4,122.8 	"/>
	<polygon fill="#E98924" points="499.8,122 499.5,122.4 500.3,122.7 	"/>
	<polygon fill="#E98924" points="491.8,129.6 492.2,129.1 492.1,128.3 491.6,128.8 	"/>
	<g>
		<path fill="#F99E1E" d="M481.1,110.4c0.2,0.1,0.3,0.1,0.5,0.2c0.1,0,0.2,0.1,0.2,0.1c0.2,0.1,0.4,0.2,0.6,0.3c0,0,0,0,0,0
			c0.5,0.3,0.9,0.6,1.4,0.9c0,0,0,0,0,0c1.8,1.3,3.5,3.1,5,5.3c0.8,1.2,1.5,2.6,2.1,4c0.5-0.9,1.2-1.7,1.9-2.4
			c1.3-1.1,3-1.6,4.7-1.5l0,0c0,0,0,0,0,0c0.2,0,0.3,0,0.5,0c0.3,0,0.6,0.1,0.9,0.2c0,0,0,0,0,0c0.2,0,0.4,0.1,0.6,0.2
			c0.1,0,0.2,0,0.2,0.1c0.1,0,0.3,0.1,0.5,0.2c1.6,0.6,2.8-0.6,2.7-2.8l-0.1-1.6l-0.1-1.6l-1.1-0.4l0.1,3.1c0,1.3-0.7,2.1-1.7,1.7
			c-0.2-0.1-0.4-0.1-0.5-0.2c-0.1,0-0.2-0.1-0.3-0.1c-0.5-0.1-0.9-0.2-1.4-0.3c-0.1,0-0.1,0-0.2,0c0,0-0.1,0-0.1,0
			c-0.4,0-0.8-0.1-1.1-0.1l0,0c-1.7,0-3.3,0.6-4.6,1.7c-0.4,0.4-0.8,0.8-1.2,1.2c-0.4-0.8-0.8-1.5-1.3-2.2c-1.4-2.2-3.1-4-4.8-5.4
			l0,0c-0.4-0.3-0.8-0.6-1.2-0.9c-0.1-0.1-0.2-0.1-0.3-0.2c-0.5-0.3-0.9-0.6-1.4-0.8c-0.1,0-0.2-0.1-0.2-0.1
			c-0.2-0.1-0.4-0.2-0.6-0.2c-1-0.4-1.8-1.7-1.8-3l-0.1-2.9l-1.1-0.4l0,1.5l0,1.5C478.2,107.6,479.5,109.8,481.1,110.4z"/>
		<path fill="#F99E1E" d="M500.5,122.8c-0.1,0-0.2-0.1-0.3-0.1c-0.2-0.1-0.4-0.1-0.7-0.2c0.3,1.2,0.4,2.4,0.5,3.6
			c0.2,6.7-3.6,10.4-8.6,8.2c-5-2.2-9.2-9.3-9.4-15.7c0-1.2,0.1-2.2,0.3-3.2c-0.2-0.1-0.4-0.2-0.7-0.3l0,0c-0.1-0.1-0.2-0.1-0.3-0.1
			c-0.1,0-0.2-0.1-0.3-0.1c-0.2,1-0.3,2.1-0.2,3.3c0.2,7.3,5,15.4,10.7,17.9c5.7,2.5,10-1.7,9.8-9.4c0-1.2-0.2-2.5-0.5-3.7
			C500.6,122.8,500.5,122.8,500.5,122.8z"/>
		<path fill="#F99E1E" d="M488.5,109.9c0.7,0,1.3,0.2,2,0.5c0.7,0.3,1.4,0.6,2.1,1.1c0.3-0.1,0.7-0.2,1-0.3l0.2,0l0,0
			c0.1,0,0.2,0,0.4-0.1c-1.2-1-2.4-1.9-3.8-2.4c-1.3-0.5-2.6-0.7-3.7-0.5c0.2,0.2,0.4,0.4,0.6,0.6
			C487.8,109.2,488.2,109.5,488.5,109.9z"/>
		<path fill="#F99E1E" d="M504.2,115.6c0.1,3-1.6,4.8-3.8,3.9c-0.2-0.1-0.3-0.1-0.4-0.2c-0.1,0-0.1,0-0.2-0.1
			c-0.4-0.1-0.9-0.2-1.3-0.3c0,0,0,0,0,0c-1.8-0.2-3.4,0.2-4.7,1.3c-1.2,1-2.1,2.5-2.6,4.3c-0.6-2.3-1.6-4.6-2.9-6.6
			c-1.4-2.2-3.1-4-4.9-5.1c-0.4-0.3-0.9-0.6-1.4-0.8c-0.1,0-0.1-0.1-0.2-0.1c-0.1-0.1-0.3-0.1-0.4-0.2c-2.2-0.9-4.1-3.9-4.2-6.8
			l-1.2-0.5c0.1,3.7,2.6,7.7,5.5,8.9c0,0,0.1,0,0.1,0c0.1,0,0.2,0.1,0.3,0.1c0.3,0.2,0.7,0.3,1,0.5c1.7,1,3.4,2.7,4.7,4.8
			c2,3,3.1,6.7,3.3,10.1l0,0l0,0l1.3,0.5c0,0,0,0,0-0.1l0,0c-0.1-3.4,0.9-6.1,2.7-7.6c1.1-1,2.6-1.4,4.1-1.2c0.1,0,0.3,0,0.4,0.1
			c0.3,0.1,0.7,0.2,1,0.3c0.1,0,0.2,0.1,0.3,0.1c0,0,0.1,0,0.1,0c2.9,1.2,5.2-1.2,5-5.2L504.2,115.6z"/>
		<path fill="#F99E1E" d="M481,107.4c0.2,0.1,0.4,0.2,0.6,0.3c0.1,0,0.2,0.1,0.3,0.1c0.6,0.3,1.2,0.6,1.8,1c0.2,0.1,0.4,0.2,0.6,0.4
			c0.5,0.4,1,0.8,1.5,1.2c1.6,1.4,3.2,3.2,4.5,5.2c0.2,0.3,0.3,0.5,0.5,0.8c0.2-0.1,0.3-0.3,0.5-0.4c1.2-1,2.7-1.6,4.3-1.8l0,0
			c0.5-0.1,1-0.1,1.5,0c0.2,0,0.3,0,0.5,0c0,0,0.1,0,0.1,0c0.6,0.1,1.1,0.2,1.7,0.4c0.1,0,0.2,0.1,0.3,0.1c0.2,0.1,0.4,0.1,0.6,0.2
			c0.3,0.1,0.6-0.1,0.6-0.6l-0.2-4.6l-0.1-1.5l-1.1-0.4l0.2,5.5c0,0-0.1,0-0.1,0c-0.1,0-0.2-0.1-0.3-0.1c-0.6-0.2-1.3-0.3-1.9-0.4
			c0,0-0.1,0-0.1,0c-0.5-0.1-1-0.1-1.5,0c-0.5,0-1,0.1-1.5,0.2l0,0c-1.3,0.3-2.4,0.8-3.5,1.6c-1.1-1.7-2.4-3.1-3.7-4.4
			c-0.5-0.5-1.1-1-1.6-1.4c-0.5-0.4-1-0.8-1.6-1.1c-0.7-0.4-1.3-0.8-2-1.1c-0.1,0-0.2-0.1-0.3-0.1c0,0-0.1,0-0.1-0.1l-0.2-5.2
			l-1.1-0.4l0,1.5l0.1,4.4C480.4,106.8,480.7,107.3,481,107.4z"/>
		<path fill="#F99E1E" d="M486.3,119.3c-0.4-0.5-0.8-1-1.2-1.5c-0.5,0.3-0.8,1-0.7,1.9c0.1,1.6,1.1,3.3,2.3,3.8
			c0.7,0.3,1.3,0.1,1.7-0.3c-0.2-0.6-0.5-1.3-0.8-1.9c-0.1,0.5-0.5,0.7-0.9,0.5c-0.5-0.2-1-1-1-1.7
			C485.6,119.6,485.9,119.3,486.3,119.3z"/>
		<path fill="#F99E1E" d="M495.4,125.6c-0.4-0.2-0.8-0.7-1-1.3c-0.3,0.4-0.5,0.8-0.7,1.2c0.4,0.8,1,1.5,1.7,1.8
			c1.2,0.5,2.2-0.4,2.1-2.1c0-0.9-0.4-1.9-0.9-2.6c-0.4,0.1-0.8,0.3-1.1,0.6c0.4,0.3,0.7,0.9,0.7,1.5
			C496.4,125.4,496,125.8,495.4,125.6z"/>
	</g>
</g>
<g>
	<path opacity="0.43" fill="#30439B" d="M611.3,215.8L570.4,192c-4-2.4-9-2.4-13.1,0l-39.1,34.2l32.8,23.5h19.8l40.6-25.1
		C614.7,222.5,614.7,217.7,611.3,215.8z"/>
	<g>
		<g>
			
				<linearGradient id="SVGID_39_" gradientUnits="userSpaceOnUse" x1="508.9977" y1="179.6938" x2="594.6611" y2="179.6938" gradientTransform="matrix(1 0 0 1 -2.5162 0)">
				<stop  offset="0.2919" style="stop-color:#EAE9F5"/>
				<stop  offset="0.3893" style="stop-color:#E2E2F1"/>
				<stop  offset="0.5285" style="stop-color:#CFCEE8"/>
				<stop  offset="0.627" style="stop-color:#BFBDDF"/>
			</linearGradient>
			<path fill="url(#SVGID_39_)" d="M592.1,109.1h-85.7v116.3c0,1,0.5,2.1,1.5,2.7l36,20.8c3.3,1.9,7.3,1.9,10.6,0l35.9-20.8
				c1-0.6,1.5-1.7,1.5-2.7C592.1,225.4,592.1,109.1,592.1,109.1z"/>
			<path fill="#FFFFFF" d="M544,132.7l-36-20.8c-2-1.2-2-4.1,0-5.3l36.2-20.9c3-1.7,6.7-1.7,9.7,0l36.6,21.2c2,1.1,2,4,0,5.1
				l-35.9,20.8C551.4,134.6,547.3,134.6,544,132.7z"/>
		</g>
	</g>
</g>
<g>
	<g>
		<g>
			<linearGradient id="SVGID_40_" gradientUnits="userSpaceOnUse" x1="526.3871" y1="85.0484" x2="571.9379" y2="85.0484">
				<stop  offset="0" style="stop-color:#FFD33F"/>
				<stop  offset="1" style="stop-color:#F37366"/>
			</linearGradient>
			<path fill="url(#SVGID_40_)" d="M559.4,110c1.3-2.4,2.1-5.5,2.1-9.2c0-13.4-9.4-29.7-21.1-36.5c-3-1.8-5.9-2.7-8.5-2.9
				c-2-0.1-3.8,0.2-5.4,0.9l9.1-4.9c3.8-2.5,9.3-2.3,15.3,1.2c11.6,6.7,21.1,23.1,21.1,36.5c0,6.3-2.1,10.8-5.5,13.1
				c-0.2,0.1-0.4,0.3-0.6,0.4c-0.2,0.1-10.5,5.7-10.5,5.7C557,113.4,558.3,111.9,559.4,110z"/>
			<path fill="#FFD33F" d="M526.4,62.3c1.6-0.7,3.4-1,5.4-0.9c2.6,0.2,5.5,1.1,8.5,2.9c11.6,6.7,21.1,23.1,21.1,36.5
				c0,3.7-0.8,6.8-2.1,9.2c-1,1.9-2.4,3.4-4.1,4.3c-3.8,2.2-9.1,1.9-15-1.5c-11.6-6.7-21.1-23.1-21.1-36.5
				C519.2,69.1,522,64.3,526.4,62.3z"/>
		</g>
	</g>
	<g>
		<path fill="#E98924" d="M529.6,80.1c0.2,0.1,0.3,0.1,0.5,0.2c0.1,0,0.2,0.1,0.2,0.1c0.2,0.1,0.4,0.2,0.6,0.3c0,0,0,0,0,0
			c0.5,0.3,0.9,0.6,1.4,0.9c0,0,0,0,0,0c1.8,1.3,3.5,3.1,5,5.3c0.8,1.2,1.5,2.6,2.1,4c0.5-0.9,1.2-1.7,1.9-2.4
			c1.3-1.1,3-1.6,4.7-1.5l0,0c0,0,0,0,0,0c0.2,0,0.3,0,0.5,0c0.3,0,0.6,0.1,0.9,0.2c0,0,0,0,0,0c0.2,0,0.4,0.1,0.6,0.2
			c0.1,0,0.2,0,0.2,0.1c0.1,0,0.3,0.1,0.5,0.2c1.6,0.6,2.8-0.6,2.7-2.8l-0.1-1.6l-0.1-1.6l-1.1-0.4l0.1,3.1c0,1.3-0.7,2.1-1.7,1.7
			c-0.2-0.1-0.4-0.1-0.5-0.2c-0.1,0-0.2-0.1-0.3-0.1c-0.5-0.1-0.9-0.2-1.4-0.3c-0.1,0-0.1,0-0.2,0c0,0-0.1,0-0.1,0
			c-0.4,0-0.8-0.1-1.1-0.1l0,0c-1.7,0-3.3,0.6-4.6,1.7c-0.4,0.4-0.8,0.8-1.2,1.2c-0.4-0.8-0.8-1.5-1.3-2.2c-1.4-2.2-3.1-4-4.8-5.4
			l0,0c-0.4-0.3-0.8-0.6-1.2-0.9c-0.1-0.1-0.2-0.1-0.3-0.2c-0.5-0.3-0.9-0.6-1.4-0.8c-0.1,0-0.2-0.1-0.2-0.1
			c-0.2-0.1-0.4-0.2-0.6-0.2c-1-0.4-1.8-1.7-1.8-3l-0.1-2.9l-1.1-0.4l0,1.5l0,1.5C526.7,77.2,528,79.4,529.6,80.1z"/>
		<path fill="#E98924" d="M549,92.4c-0.1,0-0.2-0.1-0.3-0.1c-0.2-0.1-0.4-0.1-0.7-0.2c0.3,1.2,0.4,2.4,0.5,3.6
			c0.2,6.7-3.6,10.4-8.6,8.2c-5-2.2-9.2-9.3-9.4-15.7c0-1.2,0.1-2.2,0.3-3.2c-0.2-0.1-0.4-0.2-0.7-0.3l0,0c-0.1-0.1-0.2-0.1-0.3-0.1
			c-0.1,0-0.2-0.1-0.3-0.1c-0.2,1-0.3,2.1-0.2,3.3c0.2,7.3,5,15.4,10.7,17.9c5.7,2.5,10-1.7,9.8-9.4c0-1.2-0.2-2.5-0.5-3.7
			C549.2,92.5,549.1,92.5,549,92.4z"/>
		<path fill="#E98924" d="M537.1,79.6c0.7,0,1.3,0.2,2,0.5c0.7,0.3,1.4,0.6,2.1,1.1c0.3-0.1,0.7-0.2,1-0.3l0.2,0l0,0
			c0.1,0,0.2,0,0.4-0.1c-1.2-1-2.4-1.9-3.8-2.4c-1.3-0.5-2.6-0.7-3.7-0.5c0.2,0.2,0.4,0.4,0.6,0.6C536.3,78.8,536.7,79.2,537.1,79.6
			z"/>
		<path fill="#E98924" d="M552.7,85.3c0.1,3-1.6,4.8-3.8,3.9c-0.2-0.1-0.3-0.1-0.4-0.2c-0.1,0-0.1,0-0.2-0.1
			c-0.4-0.1-0.9-0.2-1.3-0.3c0,0,0,0,0,0c-1.8-0.2-3.4,0.2-4.7,1.3c-1.2,1-2.1,2.5-2.6,4.3c-0.6-2.3-1.6-4.6-2.9-6.6
			c-1.4-2.2-3.1-4-4.9-5.1c-0.4-0.3-0.9-0.6-1.4-0.8c-0.1,0-0.1-0.1-0.2-0.1c-0.1-0.1-0.3-0.1-0.4-0.2c-2.2-0.9-4.1-3.9-4.2-6.8
			l-1.2-0.5c0.1,3.7,2.6,7.7,5.5,8.9c0,0,0.1,0,0.1,0c0.1,0,0.2,0.1,0.3,0.1c0.3,0.2,0.7,0.3,1,0.5c1.7,1,3.4,2.7,4.7,4.8
			c2,3,3.1,6.7,3.3,10.1l0,0l0,0l1.3,0.5c0,0,0,0,0-0.1l0,0c-0.1-3.4,0.9-6.1,2.7-7.6c1.1-1,2.6-1.4,4.1-1.2c0.1,0,0.3,0,0.4,0.1
			c0.3,0.1,0.7,0.2,1,0.3c0.1,0,0.2,0.1,0.3,0.1c0,0,0.1,0,0.1,0c2.9,1.2,5.2-1.2,5-5.2L552.7,85.3z"/>
		<path fill="#E98924" d="M529.5,77.1c0.2,0.1,0.4,0.2,0.6,0.3c0.1,0,0.2,0.1,0.3,0.1c0.6,0.3,1.2,0.6,1.8,1
			c0.2,0.1,0.4,0.2,0.6,0.4c0.5,0.4,1,0.8,1.5,1.2c1.6,1.4,3.2,3.2,4.5,5.2c0.2,0.3,0.3,0.5,0.5,0.8c0.2-0.1,0.3-0.3,0.5-0.4
			c1.2-1,2.7-1.6,4.3-1.8l0,0c0.5-0.1,1-0.1,1.5,0c0.2,0,0.3,0,0.5,0c0,0,0.1,0,0.1,0c0.6,0.1,1.1,0.2,1.7,0.4
			c0.1,0,0.2,0.1,0.3,0.1c0.2,0.1,0.4,0.1,0.6,0.2c0.3,0.1,0.6-0.1,0.6-0.6l-0.2-4.6l-0.1-1.5l-1.1-0.4l0.2,5.5c0,0-0.1,0-0.1,0
			c-0.1,0-0.2-0.1-0.3-0.1c-0.6-0.2-1.3-0.3-1.9-0.4c0,0-0.1,0-0.1,0c-0.5-0.1-1-0.1-1.5,0c-0.5,0-1,0.1-1.5,0.2l0,0
			c-1.3,0.3-2.4,0.8-3.5,1.6c-1.1-1.7-2.4-3.1-3.7-4.4c-0.5-0.5-1.1-1-1.6-1.4c-0.5-0.4-1-0.8-1.6-1.1c-0.7-0.4-1.3-0.8-2-1.1
			c-0.1,0-0.2-0.1-0.3-0.1c0,0-0.1,0-0.1-0.1l-0.2-5.2l-1.1-0.4l0,1.5l0.1,4.4C528.9,76.5,529.2,77,529.5,77.1z"/>
		<path fill="#E98924" d="M534.8,89c-0.4-0.5-0.8-1-1.2-1.5c-0.5,0.3-0.8,1-0.7,1.9c0.1,1.6,1.1,3.3,2.3,3.8
			c0.7,0.3,1.3,0.1,1.7-0.3c-0.2-0.6-0.5-1.3-0.8-1.9c-0.1,0.5-0.5,0.7-0.9,0.5c-0.5-0.2-1-1-1-1.7C534.1,89.3,534.4,88.9,534.8,89z
			"/>
		<path fill="#E98924" d="M543.9,95.3c-0.4-0.2-0.8-0.7-1-1.3c-0.3,0.4-0.5,0.8-0.7,1.2c0.4,0.8,1,1.5,1.7,1.8
			c1.2,0.5,2.2-0.4,2.1-2.1c0-0.9-0.4-1.9-0.9-2.6c-0.4,0.1-0.8,0.3-1.1,0.6c0.4,0.3,0.7,0.9,0.7,1.5
			C544.9,95.1,544.5,95.5,543.9,95.3z"/>
	</g>
	<polygon fill="#E98924" points="524.2,74.3 523.9,74.8 524.6,75.1 	"/>
	<polygon fill="#E98924" points="526.5,72.3 526.2,72.8 526.7,73 	"/>
	<polygon fill="#E98924" points="528.7,70.2 528.3,70.7 528.7,70.8 	"/>
	<path fill="#E98924" d="M535.3,77.9l-0.4,0.5c0,0,1,0.1,1.3,0C536.6,78.3,535.3,77.9,535.3,77.9z"/>
	<polygon fill="#E98924" points="542.8,80.8 542.4,81.3 541.4,80.6 	"/>
	<polygon fill="#E98924" points="548,77.4 547.6,77.8 548.3,78.4 	"/>
	<polygon fill="#E98924" points="550.3,81.3 550,81.8 550.5,82.1 	"/>
	<polygon fill="#E98924" points="552.7,85.3 552.3,85.8 552.9,86.2 	"/>
	<polygon fill="#E98924" points="529.5,84.5 529.1,85 529.7,85.2 	"/>
	<polygon fill="#E98924" points="534.8,89 534.4,89.5 533.6,88.8 	"/>
	<polygon fill="#E98924" points="536.8,92.9 536.5,93.4 536.2,92.7 	"/>
	<polygon fill="#E98924" points="544.1,92.8 543.8,93.3 544.6,92.9 	"/>
	<polygon fill="#E98924" points="548,92.1 547.6,92.6 548.5,92.9 	"/>
	<polygon fill="#E98924" points="540,99.7 540.3,99.3 540.3,98.5 539.8,98.9 	"/>
	<g>
		<path fill="#F99E1E" d="M529.3,80.6c0.2,0.1,0.3,0.1,0.5,0.2c0.1,0,0.2,0.1,0.2,0.1c0.2,0.1,0.4,0.2,0.6,0.3c0,0,0,0,0,0
			c0.5,0.3,0.9,0.6,1.4,0.9c0,0,0,0,0,0c1.8,1.3,3.5,3.1,5,5.3c0.8,1.2,1.5,2.6,2.1,4c0.5-0.9,1.2-1.7,1.9-2.4
			c1.3-1.1,3-1.6,4.7-1.5l0,0c0,0,0,0,0,0c0.2,0,0.3,0,0.5,0c0.3,0,0.6,0.1,0.9,0.2c0,0,0,0,0,0c0.2,0,0.4,0.1,0.6,0.2
			c0.1,0,0.2,0,0.2,0.1c0.1,0,0.3,0.1,0.5,0.2c1.6,0.6,2.8-0.6,2.7-2.8l-0.1-1.6l-0.1-1.6l-1.1-0.4l0.1,3.1c0,1.3-0.7,2.1-1.7,1.7
			c-0.2-0.1-0.4-0.1-0.5-0.2c-0.1,0-0.2-0.1-0.3-0.1c-0.5-0.1-0.9-0.2-1.4-0.3c-0.1,0-0.1,0-0.2,0c0,0-0.1,0-0.1,0
			c-0.4,0-0.8-0.1-1.1-0.1l0,0c-1.7,0-3.3,0.6-4.6,1.7c-0.4,0.4-0.8,0.8-1.2,1.2c-0.4-0.8-0.8-1.5-1.3-2.2c-1.4-2.2-3.1-4-4.8-5.4
			l0,0c-0.4-0.3-0.8-0.6-1.2-0.9c-0.1-0.1-0.2-0.1-0.3-0.2c-0.5-0.3-0.9-0.6-1.4-0.8c-0.1,0-0.2-0.1-0.2-0.1
			c-0.2-0.1-0.4-0.2-0.6-0.2c-1-0.4-1.8-1.7-1.8-3l-0.1-2.9l-1.1-0.4l0,1.5l0,1.5C526.3,77.7,527.7,79.9,529.3,80.6z"/>
		<path fill="#F99E1E" d="M548.6,92.9c-0.1,0-0.2-0.1-0.3-0.1c-0.2-0.1-0.4-0.1-0.7-0.2c0.3,1.2,0.4,2.4,0.5,3.6
			c0.2,6.7-3.6,10.4-8.6,8.2c-5-2.2-9.2-9.3-9.4-15.7c0-1.2,0.1-2.2,0.3-3.2c-0.2-0.1-0.4-0.2-0.7-0.3l0,0c-0.1-0.1-0.2-0.1-0.3-0.1
			c-0.1,0-0.2-0.1-0.3-0.1c-0.2,1-0.3,2.1-0.2,3.3c0.2,7.3,5,15.4,10.7,17.9c5.7,2.5,10-1.7,9.8-9.4c0-1.2-0.2-2.5-0.5-3.7
			C548.8,93,548.7,93,548.6,92.9z"/>
		<path fill="#F99E1E" d="M536.7,80.1c0.7,0,1.3,0.2,2,0.5c0.7,0.3,1.4,0.6,2.1,1.1c0.3-0.1,0.7-0.2,1-0.3l0.2,0l0,0
			c0.1,0,0.2,0,0.4-0.1c-1.2-1-2.4-1.9-3.8-2.4c-1.3-0.5-2.6-0.7-3.7-0.5c0.2,0.2,0.4,0.4,0.6,0.6C536,79.3,536.3,79.7,536.7,80.1z"
			/>
		<path fill="#F99E1E" d="M552.3,85.8c0.1,3-1.6,4.8-3.8,3.9c-0.2-0.1-0.3-0.1-0.4-0.2c-0.1,0-0.1,0-0.2-0.1
			c-0.4-0.1-0.9-0.2-1.3-0.3c0,0,0,0,0,0c-1.8-0.2-3.4,0.2-4.7,1.3c-1.2,1-2.1,2.5-2.6,4.3c-0.6-2.3-1.6-4.6-2.9-6.6
			c-1.4-2.2-3.1-4-4.9-5.1c-0.4-0.3-0.9-0.6-1.4-0.8c-0.1,0-0.1-0.1-0.2-0.1c-0.1-0.1-0.3-0.1-0.4-0.2c-2.2-0.9-4.1-3.9-4.2-6.8
			l-1.2-0.5c0.1,3.7,2.6,7.7,5.5,8.9c0,0,0.1,0,0.1,0c0.1,0,0.2,0.1,0.3,0.1c0.3,0.2,0.7,0.3,1,0.5c1.7,1,3.4,2.7,4.7,4.8
			c2,3,3.1,6.7,3.3,10.1l0,0l0,0l1.3,0.5c0,0,0,0,0-0.1l0,0c-0.1-3.4,0.9-6.1,2.7-7.6c1.1-1,2.6-1.4,4.1-1.2c0.1,0,0.3,0,0.4,0.1
			c0.3,0.1,0.7,0.2,1,0.3c0.1,0,0.2,0.1,0.3,0.1c0,0,0.1,0,0.1,0c2.9,1.2,5.2-1.2,5-5.2L552.3,85.8z"/>
		<path fill="#F99E1E" d="M529.2,77.6c0.2,0.1,0.4,0.2,0.6,0.3c0.1,0,0.2,0.1,0.3,0.1c0.6,0.3,1.2,0.6,1.8,1
			c0.2,0.1,0.4,0.2,0.6,0.4c0.5,0.4,1,0.8,1.5,1.2c1.6,1.4,3.2,3.2,4.5,5.2c0.2,0.3,0.3,0.5,0.5,0.8c0.2-0.1,0.3-0.3,0.5-0.4
			c1.2-1,2.7-1.6,4.3-1.8l0,0c0.5-0.1,1-0.1,1.5,0c0.2,0,0.3,0,0.5,0c0,0,0.1,0,0.1,0c0.6,0.1,1.1,0.2,1.7,0.4
			c0.1,0,0.2,0.1,0.3,0.1c0.2,0.1,0.4,0.1,0.6,0.2c0.3,0.1,0.6-0.1,0.6-0.6l-0.2-4.6l-0.1-1.5l-1.1-0.4l0.2,5.5c0,0-0.1,0-0.1,0
			c-0.1,0-0.2-0.1-0.3-0.1c-0.6-0.2-1.3-0.3-1.9-0.4c0,0-0.1,0-0.1,0c-0.5-0.1-1-0.1-1.5,0c-0.5,0-1,0.1-1.5,0.2l0,0
			c-1.3,0.3-2.4,0.8-3.5,1.6c-1.1-1.7-2.4-3.1-3.7-4.4c-0.5-0.5-1.1-1-1.6-1.4c-0.5-0.4-1-0.8-1.6-1.1c-0.7-0.4-1.3-0.8-2-1.1
			c-0.1,0-0.2-0.1-0.3-0.1c0,0-0.1,0-0.1-0.1l-0.2-5.2l-1.1-0.4l0,1.5l0.1,4.4C528.5,77,528.8,77.5,529.2,77.6z"/>
		<path fill="#F99E1E" d="M534.4,89.5c-0.4-0.5-0.8-1-1.2-1.5c-0.5,0.3-0.8,1-0.7,1.9c0.1,1.6,1.1,3.3,2.3,3.8
			c0.7,0.3,1.3,0.1,1.7-0.3c-0.2-0.6-0.5-1.3-0.8-1.9c-0.1,0.5-0.5,0.7-0.9,0.5c-0.5-0.2-1-1-1-1.7C533.7,89.8,534,89.4,534.4,89.5z
			"/>
		<path fill="#F99E1E" d="M543.6,95.8c-0.4-0.2-0.8-0.7-1-1.3c-0.3,0.4-0.5,0.8-0.7,1.2c0.4,0.8,1,1.5,1.7,1.8
			c1.2,0.5,2.2-0.4,2.1-2.1c0-0.9-0.4-1.9-0.9-2.6c-0.4,0.1-0.8,0.3-1.1,0.6c0.4,0.3,0.7,0.9,0.7,1.5
			C544.5,95.6,544.1,96,543.6,95.8z"/>
	</g>
</g>
<g>
	<g>
		<g>
			<linearGradient id="SVGID_41_" gradientUnits="userSpaceOnUse" x1="428.952" y1="29.2973" x2="474.5028" y2="29.2973">
				<stop  offset="0" style="stop-color:#FFD33F"/>
				<stop  offset="1" style="stop-color:#F37366"/>
			</linearGradient>
			<path fill="url(#SVGID_41_)" d="M461.9,54.3c1.3-2.4,2.1-5.5,2.1-9.2c0-13.4-9.4-29.7-21.1-36.5c-3-1.8-5.9-2.7-8.5-2.9
				c-2-0.1-3.8,0.2-5.4,0.9l9.1-4.9c3.8-2.5,9.3-2.3,15.3,1.2c11.6,6.7,21.1,23.1,21.1,36.5c0,6.3-2.1,10.8-5.5,13.1
				c-0.2,0.1-0.4,0.3-0.6,0.4c-0.2,0.1-10.5,5.7-10.5,5.7C459.5,57.6,460.9,56.2,461.9,54.3z"/>
			<path fill="#FFD33F" d="M429,6.6c1.6-0.7,3.4-1,5.4-0.9c2.6,0.2,5.5,1.1,8.5,2.9C454.5,15.3,464,31.6,464,45
				c0,3.7-0.8,6.8-2.1,9.2c-1,1.9-2.4,3.4-4.1,4.3c-3.8,2.2-9.1,1.9-15-1.5c-11.6-6.7-21.1-23.1-21.1-36.5
				C421.8,13.4,424.6,8.5,429,6.6z"/>
		</g>
	</g>
	<g>
		<path fill="#E98924" d="M432.2,24.3c0.2,0.1,0.3,0.1,0.5,0.2c0.1,0,0.2,0.1,0.2,0.1c0.2,0.1,0.4,0.2,0.6,0.3c0,0,0,0,0,0
			c0.5,0.3,0.9,0.6,1.4,0.9c0,0,0,0,0,0c1.8,1.3,3.5,3.1,5,5.3c0.8,1.2,1.5,2.6,2.1,4c0.5-0.9,1.2-1.7,1.9-2.4
			c1.3-1.1,3-1.6,4.7-1.5l0,0c0,0,0,0,0,0c0.2,0,0.3,0,0.5,0c0.3,0,0.6,0.1,0.9,0.2c0,0,0,0,0,0c0.2,0,0.4,0.1,0.6,0.2
			c0.1,0,0.2,0,0.2,0.1c0.1,0,0.3,0.1,0.5,0.2c1.6,0.6,2.8-0.6,2.7-2.8l-0.1-1.6L454,26l-1.1-0.4l0.1,3.1c0,1.3-0.7,2.1-1.7,1.7
			c-0.2-0.1-0.4-0.1-0.5-0.2c-0.1,0-0.2-0.1-0.3-0.1c-0.5-0.1-0.9-0.2-1.4-0.3c-0.1,0-0.1,0-0.2,0c0,0-0.1,0-0.1,0
			c-0.4,0-0.8-0.1-1.1-0.1l0,0c-1.7,0-3.3,0.6-4.6,1.7c-0.4,0.4-0.8,0.8-1.2,1.2c-0.4-0.8-0.8-1.5-1.3-2.2c-1.4-2.2-3.1-4-4.8-5.4
			l0,0c-0.4-0.3-0.8-0.6-1.2-0.9c-0.1-0.1-0.2-0.1-0.3-0.2c-0.5-0.3-0.9-0.6-1.4-0.8c-0.1,0-0.2-0.1-0.2-0.1
			c-0.2-0.1-0.4-0.2-0.6-0.2c-1-0.4-1.8-1.7-1.8-3l-0.1-2.9l-1.1-0.4l0,1.5l0,1.5C429.2,21.5,430.6,23.7,432.2,24.3z"/>
		<path fill="#E98924" d="M451.5,36.7c-0.1,0-0.2-0.1-0.3-0.1c-0.2-0.1-0.4-0.1-0.7-0.2c0.3,1.2,0.4,2.4,0.5,3.6
			c0.2,6.7-3.6,10.4-8.6,8.2c-5-2.2-9.2-9.3-9.4-15.7c0-1.2,0.1-2.2,0.3-3.2c-0.2-0.1-0.4-0.2-0.7-0.3l0,0c-0.1-0.1-0.2-0.1-0.3-0.1
			c-0.1,0-0.2-0.1-0.3-0.1c-0.2,1-0.3,2.1-0.2,3.3c0.2,7.3,5,15.4,10.7,17.9c5.7,2.5,10-1.7,9.8-9.4c0-1.2-0.2-2.5-0.5-3.7
			C451.7,36.8,451.6,36.7,451.5,36.7z"/>
		<path fill="#E98924" d="M439.6,23.8c0.7,0,1.3,0.2,2,0.5c0.7,0.3,1.4,0.6,2.1,1.1c0.3-0.1,0.7-0.2,1-0.3l0.2,0l0,0
			c0.1,0,0.2,0,0.4-0.1c-1.2-1-2.4-1.9-3.8-2.4c-1.3-0.5-2.6-0.7-3.7-0.5c0.2,0.2,0.4,0.4,0.6,0.6C438.9,23.1,439.3,23.4,439.6,23.8
			z"/>
		<path fill="#E98924" d="M455.3,29.5c0.1,3-1.6,4.8-3.8,3.9c-0.2-0.1-0.3-0.1-0.4-0.2c-0.1,0-0.1,0-0.2-0.1
			c-0.4-0.1-0.9-0.2-1.3-0.3c0,0,0,0,0,0c-1.8-0.2-3.4,0.2-4.7,1.3c-1.2,1-2.1,2.5-2.6,4.3c-0.6-2.3-1.6-4.6-2.9-6.6
			c-1.4-2.2-3.1-4-4.9-5.1c-0.4-0.3-0.9-0.6-1.4-0.8c-0.1,0-0.1-0.1-0.2-0.1c-0.1-0.1-0.3-0.1-0.4-0.2c-2.2-0.9-4.1-3.9-4.2-6.8
			l-1.2-0.5c0.1,3.7,2.6,7.7,5.5,8.9c0,0,0.1,0,0.1,0c0.1,0,0.2,0.1,0.3,0.1c0.3,0.2,0.7,0.3,1,0.5c1.7,1,3.4,2.7,4.7,4.8
			c2,3,3.1,6.7,3.3,10.1l0,0l0,0l1.3,0.5c0,0,0,0,0-0.1l0,0c-0.1-3.4,0.9-6.1,2.7-7.6c1.1-1,2.6-1.4,4.1-1.2c0.1,0,0.3,0,0.4,0.1
			c0.3,0.1,0.7,0.2,1,0.3c0.1,0,0.2,0.1,0.3,0.1c0,0,0.1,0,0.1,0c2.9,1.2,5.2-1.2,5-5.2L455.3,29.5z"/>
		<path fill="#E98924" d="M432.1,21.4c0.2,0.1,0.4,0.2,0.6,0.3c0.1,0,0.2,0.1,0.3,0.1c0.6,0.3,1.2,0.6,1.8,1
			c0.2,0.1,0.4,0.2,0.6,0.4c0.5,0.4,1,0.8,1.5,1.2c1.6,1.4,3.2,3.2,4.5,5.2c0.2,0.3,0.3,0.5,0.5,0.8c0.2-0.1,0.3-0.3,0.5-0.4
			c1.2-1,2.7-1.6,4.3-1.8l0,0c0.5-0.1,1-0.1,1.5,0c0.2,0,0.3,0,0.5,0c0,0,0.1,0,0.1,0c0.6,0.1,1.1,0.2,1.7,0.4
			c0.1,0,0.2,0.1,0.3,0.1c0.2,0.1,0.4,0.1,0.6,0.2c0.3,0.1,0.6-0.1,0.6-0.6l-0.2-4.6l-0.1-1.5l-1.1-0.4l0.2,5.5c0,0-0.1,0-0.1,0
			c-0.1,0-0.2-0.1-0.3-0.1c-0.6-0.2-1.3-0.3-1.9-0.4c0,0-0.1,0-0.1,0c-0.5-0.1-1-0.1-1.5,0c-0.5,0-1,0.1-1.5,0.2l0,0
			c-1.3,0.3-2.4,0.8-3.5,1.6c-1.1-1.7-2.4-3.1-3.7-4.4c-0.5-0.5-1.1-1-1.6-1.4c-0.5-0.4-1-0.8-1.6-1.1c-0.7-0.4-1.3-0.8-2-1.1
			c-0.1,0-0.2-0.1-0.3-0.1c0,0-0.1,0-0.1-0.1l-0.2-5.2l-1.1-0.4l0,1.5l0.1,4.4C431.5,20.8,431.8,21.2,432.1,21.4z"/>
		<path fill="#E98924" d="M437.3,33.2c-0.4-0.5-0.8-1-1.2-1.5c-0.5,0.3-0.8,1-0.7,1.9c0.1,1.6,1.1,3.3,2.3,3.8
			c0.7,0.3,1.3,0.1,1.7-0.3c-0.2-0.6-0.5-1.3-0.8-1.9c-0.1,0.5-0.5,0.7-0.9,0.5c-0.5-0.2-1-1-1-1.7
			C436.7,33.6,436.9,33.2,437.3,33.2z"/>
		<path fill="#E98924" d="M446.5,39.5c-0.4-0.2-0.8-0.7-1-1.3c-0.3,0.4-0.5,0.8-0.7,1.2c0.4,0.8,1,1.5,1.7,1.8
			c1.2,0.5,2.2-0.4,2.1-2.1c0-0.9-0.4-1.9-0.9-2.6c-0.4,0.1-0.8,0.3-1.1,0.6c0.4,0.3,0.7,0.9,0.7,1.5
			C447.5,39.3,447,39.7,446.5,39.5z"/>
	</g>
	<polygon fill="#E98924" points="426.8,18.5 426.4,19 427.2,19.4 	"/>
	<polygon fill="#E98924" points="429.1,16.5 428.7,17 429.2,17.3 	"/>
	<polygon fill="#E98924" points="431.3,14.4 430.9,14.9 431.3,15.1 	"/>
	<path fill="#E98924" d="M437.9,22.1l-0.4,0.5c0,0,1,0.1,1.3,0C439.1,22.6,437.9,22.1,437.9,22.1z"/>
	<polygon fill="#E98924" points="445.4,25 445,25.5 444,24.8 	"/>
	<polygon fill="#E98924" points="450.5,21.6 450.2,22.1 450.9,22.7 	"/>
	<polygon fill="#E98924" points="452.9,25.5 452.5,26 453.1,26.4 	"/>
	<polygon fill="#E98924" points="455.3,29.5 454.9,30 455.4,30.4 	"/>
	<polygon fill="#E98924" points="432,28.7 431.7,29.2 432.3,29.5 	"/>
	<polygon fill="#E98924" points="437.3,33.2 437,33.7 436.1,33 	"/>
	<polygon fill="#E98924" points="439.4,37.1 439,37.6 438.8,37 	"/>
	<polygon fill="#E98924" points="446.7,37.1 446.3,37.6 447.2,37.2 	"/>
	<polygon fill="#E98924" points="450.5,36.4 450.2,36.9 451.1,37.1 	"/>
	<polygon fill="#E98924" points="442.5,44 442.9,43.5 442.8,42.8 442.3,43.2 	"/>
	<g>
		<path fill="#F99E1E" d="M431.8,24.8c0.2,0.1,0.3,0.1,0.5,0.2c0.1,0,0.2,0.1,0.2,0.1c0.2,0.1,0.4,0.2,0.6,0.3c0,0,0,0,0,0
			c0.5,0.3,0.9,0.6,1.4,0.9c0,0,0,0,0,0c1.8,1.3,3.5,3.1,5,5.3c0.8,1.2,1.5,2.6,2.1,4c0.5-0.9,1.2-1.7,1.9-2.4
			c1.3-1.1,3-1.6,4.7-1.5l0,0c0,0,0,0,0,0c0.2,0,0.3,0,0.5,0c0.3,0,0.6,0.1,0.9,0.2c0,0,0,0,0,0c0.2,0,0.4,0.1,0.6,0.2
			c0.1,0,0.2,0,0.2,0.1c0.1,0,0.3,0.1,0.5,0.2c1.6,0.6,2.8-0.6,2.7-2.8l-0.1-1.6l-0.1-1.6l-1.1-0.4l0.1,3.1c0,1.3-0.7,2.1-1.7,1.7
			c-0.2-0.1-0.4-0.1-0.5-0.2c-0.1,0-0.2-0.1-0.3-0.1c-0.5-0.1-0.9-0.2-1.4-0.3c-0.1,0-0.1,0-0.2,0c0,0-0.1,0-0.1,0
			c-0.4,0-0.8-0.1-1.1-0.1l0,0c-1.7,0-3.3,0.6-4.6,1.7c-0.4,0.4-0.8,0.8-1.2,1.2c-0.4-0.8-0.8-1.5-1.3-2.2c-1.4-2.2-3.1-4-4.8-5.4
			l0,0c-0.4-0.3-0.8-0.6-1.2-0.9c-0.1-0.1-0.2-0.1-0.3-0.2c-0.5-0.3-0.9-0.6-1.4-0.8c-0.1,0-0.2-0.1-0.2-0.1
			c-0.2-0.1-0.4-0.2-0.6-0.2c-1-0.4-1.8-1.7-1.8-3l-0.1-2.9l-1.1-0.4l0,1.5l0,1.5C428.9,22,430.2,24.2,431.8,24.8z"/>
		<path fill="#F99E1E" d="M451.2,37.2c-0.1,0-0.2-0.1-0.3-0.1c-0.2-0.1-0.4-0.1-0.7-0.2c0.3,1.2,0.4,2.4,0.5,3.6
			c0.2,6.7-3.6,10.4-8.6,8.2c-5-2.2-9.2-9.3-9.4-15.7c0-1.2,0.1-2.2,0.3-3.2c-0.2-0.1-0.4-0.2-0.7-0.3l0,0c-0.1-0.1-0.2-0.1-0.3-0.1
			c-0.1,0-0.2-0.1-0.3-0.1c-0.2,1-0.3,2.1-0.2,3.3c0.2,7.3,5,15.4,10.7,17.9c5.7,2.5,10-1.7,9.8-9.4c0-1.2-0.2-2.5-0.5-3.7
			C451.4,37.2,451.3,37.2,451.2,37.2z"/>
		<path fill="#F99E1E" d="M439.3,24.3c0.7,0,1.3,0.2,2,0.5c0.7,0.3,1.4,0.6,2.1,1.1c0.3-0.1,0.7-0.2,1-0.3l0.2,0l0,0
			c0.1,0,0.2,0,0.4-0.1c-1.2-1-2.4-1.9-3.8-2.4c-1.3-0.5-2.6-0.7-3.7-0.5c0.2,0.2,0.4,0.4,0.6,0.6C438.5,23.6,438.9,23.9,439.3,24.3
			z"/>
		<path fill="#F99E1E" d="M454.9,30c0.1,3-1.6,4.8-3.8,3.9c-0.2-0.1-0.3-0.1-0.4-0.2c-0.1,0-0.1,0-0.2-0.1c-0.4-0.1-0.9-0.2-1.3-0.3
			c0,0,0,0,0,0c-1.8-0.2-3.4,0.2-4.7,1.3c-1.2,1-2.1,2.5-2.6,4.3c-0.6-2.3-1.6-4.6-2.9-6.6c-1.4-2.2-3.1-4-4.9-5.1
			c-0.4-0.3-0.9-0.6-1.4-0.8c-0.1,0-0.1-0.1-0.2-0.1c-0.1-0.1-0.3-0.1-0.4-0.2c-2.2-0.9-4.1-3.9-4.2-6.8l-1.2-0.5
			c0.1,3.7,2.6,7.7,5.5,8.9c0,0,0.1,0,0.1,0c0.1,0,0.2,0.1,0.3,0.1c0.3,0.2,0.7,0.3,1,0.5c1.7,1,3.4,2.7,4.7,4.8
			c2,3,3.1,6.7,3.3,10.1l0,0l0,0l1.3,0.5c0,0,0,0,0-0.1l0,0c-0.1-3.4,0.9-6.1,2.7-7.6c1.1-1,2.6-1.4,4.1-1.2c0.1,0,0.3,0,0.4,0.1
			c0.3,0.1,0.7,0.2,1,0.3c0.1,0,0.2,0.1,0.3,0.1c0,0,0.1,0,0.1,0c2.9,1.2,5.2-1.2,5-5.2L454.9,30z"/>
		<path fill="#F99E1E" d="M431.7,21.9c0.2,0.1,0.4,0.2,0.6,0.3c0.1,0,0.2,0.1,0.3,0.1c0.6,0.3,1.2,0.6,1.8,1
			c0.2,0.1,0.4,0.2,0.6,0.4c0.5,0.4,1,0.8,1.5,1.2c1.6,1.4,3.2,3.2,4.5,5.2c0.2,0.3,0.3,0.5,0.5,0.8c0.2-0.1,0.3-0.3,0.5-0.4
			c1.2-1,2.7-1.6,4.3-1.8l0,0c0.5-0.1,1-0.1,1.5,0c0.2,0,0.3,0,0.5,0c0,0,0.1,0,0.1,0c0.6,0.1,1.1,0.2,1.7,0.4
			c0.1,0,0.2,0.1,0.3,0.1c0.2,0.1,0.4,0.1,0.6,0.2c0.3,0.1,0.6-0.1,0.6-0.6l-0.2-4.6l-0.1-1.5l-1.1-0.4l0.2,5.5c0,0-0.1,0-0.1,0
			c-0.1,0-0.2-0.1-0.3-0.1c-0.6-0.2-1.3-0.3-1.9-0.4c0,0-0.1,0-0.1,0c-0.5-0.1-1-0.1-1.5,0c-0.5,0-1,0.1-1.5,0.2l0,0
			c-1.3,0.3-2.4,0.8-3.5,1.6c-1.1-1.7-2.4-3.1-3.7-4.4c-0.5-0.5-1.1-1-1.6-1.4c-0.5-0.4-1-0.8-1.6-1.1c-0.7-0.4-1.3-0.8-2-1.1
			c-0.1,0-0.2-0.1-0.3-0.1c0,0-0.1,0-0.1-0.1l-0.2-5.2l-1.1-0.4l0,1.5l0.1,4.4C431.1,21.3,431.4,21.7,431.7,21.9z"/>
		<path fill="#F99E1E" d="M437,33.7c-0.4-0.5-0.8-1-1.2-1.5c-0.5,0.3-0.8,1-0.7,1.9c0.1,1.6,1.1,3.3,2.3,3.8
			c0.7,0.3,1.3,0.1,1.7-0.3c-0.2-0.6-0.5-1.3-0.8-1.9c-0.1,0.5-0.5,0.7-0.9,0.5c-0.5-0.2-1-1-1-1.7C436.3,34.1,436.6,33.7,437,33.7z
			"/>
		<path fill="#F99E1E" d="M446.1,40c-0.4-0.2-0.8-0.7-1-1.3c-0.3,0.4-0.5,0.8-0.7,1.2c0.4,0.8,1,1.5,1.7,1.8
			c1.2,0.5,2.2-0.4,2.1-2.1c0-0.9-0.4-1.9-0.9-2.6c-0.4,0.1-0.8,0.3-1.1,0.6c0.4,0.3,0.7,0.9,0.7,1.5
			C447.1,39.8,446.7,40.2,446.1,40z"/>
	</g>
</g>
<g>
	<g>
		<g>
			<path fill="#293679" d="M331.8,46.6c3.6,2.1,6.5,7.1,6.5,11.3l-0.1,63.1c0,4.1-3,5.8-6.6,3.7l-17.6-10.2l-0.9,1.2l-3.4,4.8
				l-3.4-8.8l-0.8-2.2L288,99.5c-3.6-2.1-6.5-7.1-6.5-11.3l0.1-63.1c0-4.1,2.9-5.8,6.5-3.7L331.8,46.6z"/>
		</g>
	</g>
	<g>
		<g>
			<path fill="#FFFFFF" d="M319.5,74.1c4.1,2.4,6,6.5,5.9,11.1l0,15.1c0,4.7-1.9,6.7-6,4.3c-4.1-2.4-6-6.6-6-11.3l0-15.1
				C313.5,73.7,315.4,71.7,319.5,74.1z M322.4,98.9l0-15.6c0-2.6-0.9-4.8-2.9-6c-2.1-1.2-3,0-3,2.6l0,15.6c0,2.6,0.9,4.9,3,6.1
				C321.5,102.7,322.4,101.5,322.4,98.9"/>
		</g>
		<g>
			<path fill="#FFFFFF" d="M304.9,70.6c0,4.6-2,6.6-6,4.3c-4-2.3-6-6.5-5.9-11.2l0-15.2c0-4.6,2-6.6,6-4.3c4.1,2.4,6,6.6,6,11.2
				L304.9,70.6z M301.9,69.1l0-15.7c0-2.6-0.9-4.9-3-6.1c-2.2-1.2-3,0.1-3,2.7l0,15.7c0,2.6,0.8,4.8,2.9,6
				C301,72.9,301.9,71.7,301.9,69.1"/>
		</g>
		<g>
			<polygon fill="#FFFFFF" points="316,54.3 318.7,55.9 302.1,94.5 299.3,92.8 			"/>
		</g>
	</g>
</g>
</svg>
