<?xml version="1.0" encoding="utf-8"?>
<!-- Generator: Adobe Illustrator 18.1.1, SVG Export Plug-In . SVG Version: 6.00 Build 0)  -->
<svg version="1.1" id="Layer_1" xmlns="http://www.w3.org/2000/svg" xmlns:xlink="http://www.w3.org/1999/xlink" x="0px" y="0px"
	 viewBox="0 0 841.6 950.7" enable-background="new 0 0 841.6 950.7" xml:space="preserve">
<g id="Layer_4">
	<rect x="0.4" y="0" fill="#FFFFFF" width="840.8" height="950.7"/>
</g>
<g id="OBJECTS">
	<g>
		<g>
			<rect x="0" y="0" fill="#2B2E3B" width="841.2" height="471.5"/>
			<g>
				<rect x="0" y="471.5" fill="#E4E4E4" width="841.2" height="11.4"/>
				<rect x="0" y="471.5" fill="#DA2529" width="432.8" height="11.4"/>
				<circle fill="#DA2529" cx="434.3" cy="477.3" r="14.5"/>
			</g>
			<g>
				<polygon fill="#FFFFFF" points="457.9,240.3 427.4,257.8 397.4,275.3 397.4,240.3 397.4,205.7 427.4,222.8 				"/>
			</g>
		</g>
		<g>
			<rect x="142.6" y="553.7" fill="#CACACA" width="278.7" height="20.2"/>
			<rect x="142.6" y="586.8" fill="#E4E4E4" width="201.2" height="17.1"/>
			<g>
				<rect x="0" y="521.4" fill="#E4E4E4" width="841.2" height="1.5"/>
			</g>
			<g>
				<rect x="0.4" y="624.4" fill="#E4E4E4" width="841.2" height="1.5"/>
			</g>
			<text transform="matrix(1 0 0 1 614.2241 585.8209)" fill="#808080" font-family="'OpenSans-Bold'" font-size="30.19">SUBSCRIBE </text>
			<circle fill="#14B9A4" cx="82.1" cy="575.4" r="31.6"/>
		</g>
		<g>
			<rect x="55.9" y="666.2" fill="#E4E4E4" width="127.8" height="22.8"/>
			<g>
				<path fill="#ABBEE3" d="M754.5,692.5h-34.6c-7.6,0-13.7-6.1-13.7-13.7l0,0c0-7.6,6.1-13.7,13.7-13.7h34.6
					c7.6,0,13.7,6.1,13.7,13.7l0,0C768.2,686.4,762.1,692.5,754.5,692.5z"/>
				<circle fill="#657FBF" cx="765.9" cy="678.8" r="20.9"/>
			</g>
		</g>
	</g>
</g>
<g id="Layer_2">
	<path fill="#FFFFFF" d="M67.1,569.8c0.3,0,0.5,0,0.8,0c0.1,0,0.2,0,0.4,0c0.3,0,0.6,0,1,0.1c0,0,0,0,0,0c0.7,0.1,1.5,0.2,2.2,0.4
		c0,0,0,0,0,0c2.8,0.7,5.4,2.1,7.6,4c1.2,1.1,2.3,2.3,3.1,3.7c0.9-1.4,1.9-2.6,3.1-3.7c2.2-1.9,4.8-3.3,7.6-4l0,0c0,0,0,0,0,0
		c0.2-0.1,0.5-0.1,0.7-0.2c0.5-0.1,1-0.2,1.4-0.2c0,0,0,0,0,0c0.3,0,0.6-0.1,1-0.1c0.1,0,0.2,0,0.4,0c0.2,0,0.5,0,0.8,0
		c2.5,0,4.5-2,4.5-4.5v-1.8v-1.8h-1.8v3.5c0,1.5-1.2,2.7-2.7,2.7c-0.3,0-0.6,0-0.9,0c-0.1,0-0.3,0-0.4,0c-0.7,0-1.5,0.1-2.2,0.3
		c-0.1,0-0.2,0-0.3,0.1c0,0-0.1,0-0.1,0c-0.6,0.1-1.2,0.3-1.8,0.5l0,0c-2.7,0.8-5.2,2.2-7.4,4.2c-0.7,0.6-1.4,1.3-2,2
		c-0.6-0.7-1.3-1.4-2-2c-2.1-1.9-4.6-3.3-7.4-4.2l0,0c-0.6-0.2-1.2-0.3-1.9-0.5c-0.1,0-0.3,0-0.4-0.1c-0.7-0.1-1.5-0.2-2.2-0.3
		c-0.1,0-0.3,0-0.4,0c-0.3,0-0.6,0-0.9,0c-1.5,0-2.7-1.2-2.7-2.7v-3.5h-1.8v1.8v1.8C62.6,567.7,64.7,569.8,67.1,569.8"/>
	<path fill="#FFFFFF" d="M97.1,575.2c-0.2,0-0.3,0-0.5,0c-0.4,0-0.7,0-1,0.1c0.4,1.3,0.6,2.6,0.6,4c0,7.7-6.3,14-14,14
		s-14-6.3-14-14c0-1.4,0.2-2.7,0.6-4c-0.3,0-0.7-0.1-1-0.1h0c-0.2,0-0.3,0-0.5,0c-0.1,0-0.3,0-0.5,0c-0.3,1.3-0.5,2.7-0.5,4.1
		c0,8.8,7.2,16,16,16c8.8,0,16-7.2,16-16c0-1.4-0.2-2.8-0.5-4.1C97.4,575.2,97.3,575.2,97.1,575.2"/>
	<path fill="#FFFFFF" d="M78.9,565.6c1-0.2,2.1-0.4,3.2-0.4s2.2,0.1,3.2,0.4c0.5-0.3,1.1-0.6,1.7-0.8l0.3-0.2h0
		c0.2-0.1,0.4-0.2,0.6-0.2c-1.8-0.7-3.8-1.1-5.8-1.1s-4,0.4-5.8,1.1c0.3,0.1,0.6,0.3,1,0.4C77.8,565.1,78.4,565.4,78.9,565.6"/>
	<path fill="#FFFFFF" d="M103.4,565.3c0,3.5-2.8,6.3-6.3,6.3c-0.3,0-0.5,0-0.7,0c-0.1,0-0.2,0-0.3,0c-0.7,0-1.4,0.1-2.1,0.3
		c0,0,0,0,0,0c-2.8,0.6-5.4,1.9-7.5,3.8c-2,1.8-3.4,4-4.3,6.4c-0.9-2.4-2.4-4.6-4.3-6.4c-2.1-1.9-4.8-3.2-7.5-3.8
		c-0.7-0.1-1.4-0.2-2.1-0.3c-0.1,0-0.2,0-0.3,0c-0.2,0-0.4,0-0.7,0c-3.5,0-6.3-2.8-6.3-6.3h-2c0,4.5,3.7,8.2,8.2,8.2
		c0,0,0.1,0,0.1,0c0.2,0,0.3,0,0.5,0c0.5,0,1,0.1,1.6,0.2c2.7,0.4,5.2,1.6,7.2,3.4c2.9,2.6,4.6,6.4,4.7,10.4v0v0h2c0,0,0,0,0-0.1
		l0,0c0-3.9,1.7-7.7,4.7-10.4c1.9-1.7,4.1-2.8,6.6-3.3c0.2,0,0.4-0.1,0.6-0.1c0.5-0.1,1-0.1,1.6-0.2c0.1,0,0.3,0,0.5,0
		c0,0,0.1,0,0.1,0c4.5,0,8.2-3.7,8.2-8.2L103.4,565.3L103.4,565.3z"/>
	<path fill="#FFFFFF" d="M67.1,566.2c0.3,0,0.6,0,0.9,0c0.1,0,0.3,0,0.4,0c0.9,0.1,1.9,0.2,2.8,0.4c0.3,0.1,0.6,0.1,0.9,0.2
		c0.8,0.2,1.6,0.4,2.3,0.7c2.5,0.9,4.8,2.3,6.8,4.1c0.3,0.2,0.5,0.5,0.8,0.7c0.3-0.2,0.5-0.5,0.8-0.7c2-1.8,4.3-3.2,6.8-4.1l0,0
		c0.8-0.3,1.5-0.5,2.3-0.7c0.3-0.1,0.5-0.1,0.8-0.2c0.1,0,0.1,0,0.2,0c0.9-0.2,1.8-0.3,2.7-0.4c0.1,0,0.3,0,0.5,0c0.3,0,0.6,0,0.9,0
		c0.5,0,1-0.4,1-1v-5.3v-1.8h-1.8v6.3c-0.1,0-0.1,0-0.2,0c-0.2,0-0.3,0-0.5,0c-1,0.1-2,0.2-2.9,0.4c-0.1,0-0.1,0-0.2,0
		c-0.8,0.2-1.6,0.4-2.3,0.6c-0.8,0.3-1.7,0.6-2.5,0.9l0,0c-2,0.9-3.9,2.1-5.6,3.5c-1.7-1.4-3.6-2.6-5.6-3.5
		c-0.8-0.4-1.6-0.7-2.5-0.9c-0.8-0.3-1.6-0.5-2.4-0.6c-1-0.2-2-0.3-3.1-0.4c-0.1,0-0.3,0-0.5,0c-0.1,0-0.1,0-0.2,0v-6.3h-1.8v1.8
		v5.3C66.2,565.8,66.6,566.2,67.1,566.2"/>
	<path fill="#FFFFFF" d="M74.8,578c-0.6-0.5-1.2-0.9-1.8-1.2c-0.8,0.6-1.3,1.6-1.3,2.7c0,1.9,1.6,3.5,3.5,3.5c1.1,0,2-0.5,2.6-1.2
		c-0.3-0.6-0.7-1.2-1.2-1.8c-0.2,0.6-0.8,1.1-1.4,1.1c-0.8,0-1.5-0.7-1.5-1.5C73.7,578.8,74.2,578.2,74.8,578"/>
	<path fill="#FFFFFF" d="M89,580.9c-0.7,0-1.3-0.5-1.4-1.1c-0.5,0.6-0.9,1.2-1.2,1.8c0.6,0.7,1.6,1.2,2.6,1.2c1.9,0,3.5-1.6,3.5-3.5
		c0-1.1-0.5-2-1.3-2.7c-0.6,0.4-1.2,0.8-1.8,1.2c0.6,0.2,1.1,0.8,1.1,1.5C90.5,580.3,89.8,580.9,89,580.9"/>
</g>
</svg>
